<?xml version="1.0" standalone="no"?>
<!DOCTYPE svg PUBLIC "-//W3C//DTD SVG 20010904//EN"
 "http://www.w3.org/TR/2001/REC-SVG-20010904/DTD/svg10.dtd">
<svg version="1.0" xmlns="http://www.w3.org/2000/svg"
 width="100.000000pt" height="100.000000pt" viewBox="0 0 100.000000 100.000000"
 preserveAspectRatio="xMidYMid meet">
<metadata>
Created by potrace 1.16, written by Peter Selinger 2001-2019
</metadata>
<g transform="translate(0.000000,100.000000) scale(0.100000,-0.100000)"
fill="#E91E63" stroke="none">
<path d="M485 545 l-228 -276 -97 96 c-84 84 -101 96 -126 93 -24 -2 -30 -8
-32 -32 -3 -25 11 -44 115 -148 91 -91 124 -118 144 -118 23 0 63 44 270 295
209 252 244 299 244 327 0 29 -3 33 -31 36 -29 3 -43 -12 -259 -273z"/>
<path d="M708 548 c-224 -270 -227 -273 -265 -273 -34 0 -38 -3 -41 -29 -5
-37 40 -86 79 -86 23 0 61 42 270 295 209 252 244 299 244 327 0 29 -3 33 -31
36 -29 3 -43 -12 -256 -270z"/>
</g>
</svg>
