<svg id="svg" version="1.1" xmlns="http://www.w3.org/2000/svg" xmlns:xlink="http://www.w3.org/1999/xlink" width="400" height="299.8941798941799" viewBox="0, 0, 400,299.8941798941799"><g id="svgg"><path id="path0" d="M196.614 34.193 C 196.614 34.444,196.800 34.507,197.391 34.457 C 198.508 34.363,198.581 33.862,197.478 33.862 C 196.836 33.862,196.614 33.947,196.614 34.193 M205.926 34.057 C 205.926 34.164,205.868 34.402,205.797 34.586 C 205.706 34.824,205.794 34.921,206.102 34.921 C 206.341 34.921,206.595 35.016,206.667 35.132 C 206.828 35.394,207.407 35.413,207.407 35.157 C 207.407 35.054,207.195 34.914,206.935 34.846 C 206.560 34.748,206.516 34.669,206.723 34.462 C 207.125 34.061,207.036 33.862,206.455 33.862 C 206.164 33.862,205.926 33.950,205.926 34.057 M212.063 37.842 C 212.063 38.033,212.971 38.730,213.220 38.730 C 213.507 38.730,213.292 38.130,212.963 38.014 C 212.759 37.942,212.474 37.828,212.328 37.760 C 212.183 37.692,212.063 37.729,212.063 37.842 M217.573 43.739 C 217.569 43.991,217.685 44.239,217.831 44.290 C 218.288 44.449,218.625 44.205,218.600 43.734 C 218.580 43.376,218.555 43.359,218.478 43.651 C 218.425 43.854,218.298 44.021,218.196 44.021 C 218.094 44.021,217.913 43.854,217.795 43.651 C 217.600 43.317,217.578 43.326,217.573 43.739 M204.926 46.561 C 204.964 47.068,205.196 47.114,205.374 46.649 C 205.555 46.178,205.541 46.138,205.198 46.138 C 205.024 46.138,204.908 46.319,204.926 46.561 M180.861 48.360 C 180.784 48.767,180.619 49.101,180.494 49.101 C 180.352 49.101,180.372 49.228,180.545 49.437 C 180.929 49.900,181.376 49.299,181.376 48.319 C 181.376 47.395,181.037 47.422,180.861 48.360 M180.204 50.632 C 180.017 51.118,180.176 52.381,180.423 52.381 C 180.714 52.381,180.822 50.790,180.550 50.519 C 180.399 50.368,180.292 50.403,180.204 50.632 M209.524 50.952 C 209.524 51.465,209.600 51.598,209.841 51.505 C 210.039 51.429,210.159 51.507,210.159 51.711 C 210.159 51.891,210.268 52.106,210.401 52.188 C 210.798 52.433,210.403 51.171,209.934 50.694 C 209.527 50.279,209.524 50.281,209.524 50.952 M179.048 52.804 C 179.048 52.979,179.143 53.122,179.259 53.122 C 179.376 53.122,179.471 52.979,179.471 52.804 C 179.471 52.630,179.376 52.487,179.259 52.487 C 179.143 52.487,179.048 52.630,179.048 52.804 M177.354 53.545 C 177.354 53.827,177.496 53.968,177.778 53.968 C 178.060 53.968,178.201 53.827,178.201 53.545 C 178.201 53.263,178.060 53.122,177.778 53.122 C 177.496 53.122,177.354 53.263,177.354 53.545 M175.838 55.042 C 175.644 55.247,175.530 55.460,175.585 55.515 C 175.780 55.709,176.508 55.397,176.508 55.120 C 176.508 54.673,176.220 54.640,175.838 55.042 M174.066 55.608 C 174.081 55.812,174.184 56.003,174.295 56.032 C 174.484 56.081,174.504 55.989,174.423 55.450 C 174.367 55.077,174.038 55.224,174.066 55.608 M191.917 59.206 C 191.877 60.225,191.918 61.149,192.007 61.259 C 192.096 61.370,192.169 60.537,192.169 59.407 C 192.169 56.850,192.013 56.726,191.917 59.206 M233.862 57.989 C 233.862 58.300,234.004 58.413,234.392 58.413 C 234.780 58.413,234.921 58.300,234.921 57.989 C 234.921 57.679,234.780 57.566,234.392 57.566 C 234.004 57.566,233.862 57.679,233.862 57.989 M208.995 60.317 C 208.923 60.434,209.012 60.529,209.194 60.529 C 209.375 60.529,209.524 60.672,209.524 60.847 C 209.524 61.021,209.381 61.164,209.206 61.164 C 209.032 61.164,208.889 61.259,208.889 61.376 C 208.889 61.492,208.986 61.587,209.106 61.587 C 209.225 61.587,209.413 61.825,209.524 62.116 C 209.799 62.841,210.227 62.780,210.532 61.972 C 210.886 61.034,209.484 59.526,208.995 60.317 M210.318 61.534 C 210.369 61.690,210.223 61.799,209.965 61.799 C 209.705 61.799,209.524 61.662,209.524 61.466 C 209.524 61.077,210.184 61.134,210.318 61.534 M158.589 62.398 C 158.529 62.629,158.298 62.866,158.076 62.924 C 157.609 63.046,157.524 63.704,157.975 63.704 C 158.490 63.704,159.781 62.769,159.728 62.434 C 159.649 61.928,158.720 61.898,158.589 62.398 M239.365 62.109 C 239.365 62.442,240.191 62.608,240.427 62.324 C 240.647 62.059,240.585 62.011,240.026 62.011 C 239.662 62.011,239.365 62.055,239.365 62.109 M217.687 64.103 C 217.623 64.206,217.770 64.343,218.013 64.406 C 218.256 64.470,218.392 64.623,218.316 64.748 C 218.239 64.872,218.280 64.974,218.407 64.974 C 218.777 64.974,218.926 64.314,218.602 64.109 C 218.222 63.868,217.834 63.865,217.687 64.103 M186.917 64.497 C 186.965 64.748,187.226 64.890,187.726 64.938 C 188.133 64.977,188.395 64.938,188.308 64.852 C 188.222 64.765,188.258 64.567,188.388 64.411 C 188.578 64.181,188.454 64.127,187.735 64.127 C 187.004 64.127,186.860 64.192,186.917 64.497 M155.556 64.541 C 155.556 64.803,154.539 65.820,154.276 65.820 C 154.165 65.820,154.074 66.011,154.074 66.243 C 154.074 66.526,154.215 66.667,154.497 66.667 C 154.733 66.667,154.921 66.526,154.921 66.349 C 154.921 66.175,155.042 66.032,155.191 66.032 C 155.528 66.032,156.825 64.865,156.825 64.562 C 156.825 64.439,156.540 64.339,156.190 64.339 C 155.841 64.339,155.556 64.430,155.556 64.541 M184.911 64.995 C 185.078 65.163,185.255 65.165,185.535 65.002 C 185.878 64.803,185.849 64.774,185.302 64.768 C 184.846 64.764,184.740 64.825,184.911 64.995 M246.067 65.326 C 245.776 65.618,245.941 66.032,246.349 66.032 C 246.584 66.032,246.772 66.173,246.772 66.349 C 246.772 66.547,246.972 66.667,247.302 66.667 C 247.635 66.667,247.831 66.547,247.831 66.344 C 247.831 66.166,247.593 65.931,247.302 65.820 C 247.011 65.709,246.772 65.521,246.772 65.402 C 246.772 65.160,246.286 65.108,246.067 65.326 M224.444 66.455 C 224.516 66.571,224.718 66.667,224.893 66.667 C 225.067 66.667,225.151 66.571,225.079 66.455 C 225.007 66.339,224.806 66.243,224.631 66.243 C 224.457 66.243,224.373 66.339,224.444 66.455 M225.608 67.051 C 225.608 67.161,225.850 67.298,226.146 67.355 C 226.485 67.420,226.655 67.370,226.606 67.221 C 226.509 66.927,225.608 66.773,225.608 67.051 M153.323 68.131 C 153.389 68.238,153.293 68.476,153.109 68.660 C 152.925 68.844,152.873 68.995,152.993 68.995 C 153.114 68.995,153.311 68.810,153.432 68.585 C 153.708 68.068,153.707 67.937,153.427 67.937 C 153.303 67.937,153.257 68.024,153.323 68.131 M225.450 68.201 C 225.581 68.596,226.172 68.640,226.316 68.264 C 226.409 68.021,226.302 67.937,225.902 67.937 C 225.564 67.937,225.395 68.036,225.450 68.201 M150.326 69.206 C 150.265 69.439,150.136 69.630,150.039 69.630 C 149.766 69.630,148.783 70.601,148.783 70.871 C 148.783 71.003,148.647 71.111,148.480 71.111 C 148.313 71.111,148.116 71.302,148.042 71.534 C 147.968 71.767,147.772 71.958,147.605 71.958 C 147.438 71.958,147.302 72.089,147.302 72.250 C 147.302 72.411,147.111 72.593,146.878 72.654 C 146.646 72.715,146.455 72.916,146.455 73.102 C 146.455 73.287,146.312 73.439,146.138 73.439 C 145.963 73.439,145.820 73.571,145.820 73.732 C 145.820 73.893,145.630 74.075,145.397 74.135 C 145.164 74.196,144.974 74.387,144.974 74.559 C 144.974 74.731,144.775 74.923,144.532 74.987 C 144.247 75.061,144.116 75.238,144.164 75.485 C 144.264 76.007,144.940 76.105,145.117 75.624 C 145.195 75.412,145.385 75.162,145.540 75.069 C 145.694 74.976,145.820 74.761,145.820 74.593 C 145.820 74.424,145.928 74.286,146.060 74.286 C 146.330 74.286,147.302 73.302,147.302 73.030 C 147.302 72.933,147.502 72.801,147.746 72.737 C 148.009 72.669,148.130 72.523,148.042 72.381 C 147.955 72.239,148.076 72.093,148.338 72.025 C 148.583 71.961,148.783 71.777,148.783 71.616 C 148.783 71.455,148.903 71.323,149.049 71.323 C 149.195 71.323,149.592 70.989,149.932 70.582 C 150.272 70.175,150.666 69.841,150.808 69.841 C 151.111 69.841,151.300 69.425,151.168 69.048 C 151.023 68.631,150.448 68.739,150.326 69.206 M172.372 69.432 C 172.142 69.805,172.385 69.857,172.820 69.528 C 173.178 69.257,173.184 69.219,172.870 69.213 C 172.673 69.209,172.449 69.308,172.372 69.432 M170.794 70.255 C 170.794 70.676,171.299 71.542,171.505 71.474 C 171.923 71.334,171.863 70.952,171.402 70.831 C 171.008 70.728,170.978 70.659,171.208 70.381 C 171.435 70.108,171.423 70.053,171.137 70.053 C 170.948 70.053,170.794 70.144,170.794 70.255 M232.015 70.284 C 232.466 70.546,232.304 70.899,231.734 70.899 C 231.142 70.899,231.227 71.508,231.852 71.746 C 232.143 71.857,232.381 72.045,232.381 72.164 C 232.381 72.493,233.166 72.423,233.297 72.083 C 233.370 71.892,233.225 71.738,232.896 71.656 C 232.251 71.494,232.233 71.201,232.857 71.029 L 233.333 70.897 232.804 70.480 C 232.513 70.250,232.132 70.063,231.958 70.064 C 231.712 70.065,231.725 70.115,232.015 70.284 M252.099 70.720 C 252.138 70.994,252.342 71.245,252.557 71.287 C 252.857 71.344,252.929 71.249,252.874 70.868 C 252.835 70.594,252.632 70.342,252.417 70.301 C 252.117 70.244,252.045 70.338,252.099 70.720 M168.836 71.289 C 168.213 71.665,168.034 72.087,168.589 71.874 C 168.773 71.804,169.122 71.746,169.365 71.746 C 169.607 71.746,169.743 71.683,169.667 71.607 C 169.590 71.530,169.634 71.340,169.763 71.183 C 170.097 70.782,169.580 70.840,168.836 71.289 M253.045 71.258 C 252.792 71.511,252.909 71.958,253.228 71.958 C 253.402 71.958,253.545 71.820,253.545 71.653 C 253.545 71.299,253.243 71.060,253.045 71.258 M166.621 72.721 L 166.153 73.228 166.674 73.228 C 166.961 73.228,167.196 73.323,167.196 73.439 C 167.196 73.556,167.056 73.651,166.886 73.651 C 166.615 73.651,166.138 74.249,166.138 74.589 C 166.138 74.945,167.247 74.666,167.346 74.286 C 167.407 74.053,167.589 73.862,167.750 73.862 C 168.200 73.862,168.096 73.273,167.619 73.122 C 167.125 72.965,167.050 72.593,167.513 72.593 C 167.688 72.593,167.831 72.497,167.831 72.381 C 167.831 71.998,167.099 72.204,166.621 72.721 M168.677 72.364 C 168.677 72.471,168.619 72.709,168.549 72.893 C 168.452 73.146,168.556 73.228,168.979 73.228 C 169.609 73.228,169.957 72.651,169.502 72.363 C 169.115 72.118,168.677 72.118,168.677 72.364 M164.593 74.187 C 164.267 74.635,164.259 74.709,164.540 74.709 C 164.720 74.709,164.868 74.566,164.868 74.392 C 164.868 74.217,165.011 74.074,165.185 74.074 C 165.360 74.074,165.503 73.979,165.503 73.862 C 165.503 73.472,164.977 73.659,164.593 74.187 M238.023 74.243 C 238.115 74.597,239.153 75.237,239.153 74.941 C 239.153 74.857,238.878 74.585,238.541 74.336 C 238.021 73.951,237.943 73.937,238.023 74.243 M165.079 74.921 C 165.079 75.037,165.222 75.132,165.397 75.132 C 165.571 75.132,165.714 75.037,165.714 74.921 C 165.714 74.804,165.571 74.709,165.397 74.709 C 165.222 74.709,165.079 74.804,165.079 74.921 M256.508 75.303 C 256.508 75.853,257.084 76.334,257.383 76.035 C 257.739 75.679,257.498 75.032,256.982 74.959 C 256.630 74.909,256.508 74.997,256.508 75.303 M163.810 75.551 L 164.339 75.715 163.641 75.977 C 162.918 76.248,162.852 76.537,163.430 76.901 C 163.689 77.064,163.917 76.962,164.423 76.456 C 165.307 75.572,165.255 75.340,164.180 75.365 C 163.424 75.383,163.365 75.412,163.810 75.551 M141.376 78.856 C 141.376 79.041,141.185 79.243,140.952 79.304 C 140.720 79.365,140.529 79.535,140.529 79.683 C 140.529 79.830,140.339 80.000,140.106 80.061 C 139.818 80.137,139.683 80.350,139.683 80.728 C 139.683 81.323,140.328 81.766,140.490 81.281 C 140.541 81.130,140.761 80.827,140.979 80.608 C 141.197 80.390,141.376 80.127,141.376 80.023 C 141.376 79.919,141.519 79.779,141.693 79.712 C 141.868 79.645,142.011 79.349,142.011 79.054 C 142.011 78.719,141.892 78.519,141.693 78.519 C 141.519 78.519,141.376 78.670,141.376 78.856 M241.905 79.350 C 241.905 79.652,242.041 79.788,242.344 79.788 C 242.886 79.788,242.824 79.088,242.273 78.982 C 242.019 78.933,241.905 79.047,241.905 79.350 M243.810 79.141 C 243.810 79.250,243.906 79.400,244.025 79.473 C 244.143 79.546,244.185 79.695,244.118 79.803 C 244.051 79.911,244.145 80.000,244.326 80.000 C 244.714 80.000,244.731 79.901,244.437 79.351 C 244.210 78.927,243.810 78.792,243.810 79.141 M261.081 81.393 C 261.010 81.577,260.952 81.747,260.952 81.771 C 260.952 81.795,261.143 81.829,261.376 81.847 C 261.664 81.868,261.799 81.748,261.799 81.468 C 261.799 80.976,261.262 80.920,261.081 81.393 M139.111 81.974 C 139.018 82.128,138.775 82.315,138.571 82.390 C 138.049 82.582,138.111 83.279,138.685 83.654 C 139.159 83.965,139.167 83.958,139.085 83.256 C 139.021 82.704,139.080 82.540,139.342 82.540 C 139.541 82.540,139.683 82.364,139.683 82.116 C 139.683 81.635,139.364 81.555,139.111 81.974 M247.768 83.528 C 247.705 83.631,247.883 83.936,248.165 84.208 C 248.791 84.810,248.821 85.077,248.246 84.927 C 248.008 84.865,247.864 84.763,247.926 84.702 C 248.066 84.562,247.634 84.021,247.381 84.021 C 247.279 84.021,247.196 84.259,247.196 84.550 C 247.196 84.860,247.317 85.079,247.489 85.079 C 247.650 85.079,247.831 85.270,247.892 85.503 C 248.056 86.130,248.534 86.016,248.865 85.269 C 249.154 84.614,248.116 82.965,247.768 83.528 M152.274 87.199 C 152.187 87.472,152.013 87.605,151.833 87.535 C 151.617 87.453,151.534 87.595,151.534 88.049 C 151.534 88.439,151.434 88.657,151.270 88.624 C 151.121 88.595,150.976 88.826,150.938 89.152 C 150.886 89.607,150.944 89.705,151.203 89.606 C 151.385 89.536,151.534 89.346,151.534 89.184 C 151.534 89.022,151.625 88.889,151.735 88.889 C 152.184 88.889,153.047 87.846,152.979 87.384 C 152.887 86.752,152.452 86.638,152.274 87.199 M264.944 88.352 C 264.682 88.619,265.027 89.312,265.422 89.312 C 265.641 89.312,265.820 89.220,265.820 89.107 C 265.820 88.994,265.685 88.954,265.519 89.018 C 265.326 89.092,265.194 88.969,265.149 88.673 C 265.111 88.421,265.018 88.276,264.944 88.352 M252.275 89.735 C 252.275 89.852,252.132 89.947,251.958 89.947 C 251.531 89.947,251.539 90.980,251.967 91.144 C 252.380 91.303,252.401 91.274,252.574 90.317 C 252.665 89.815,252.636 89.524,252.496 89.524 C 252.375 89.524,252.275 89.619,252.275 89.735 M148.702 90.758 C 148.139 91.571,148.125 91.642,148.450 92.104 C 148.791 92.590,148.792 92.589,148.656 91.905 C 148.499 91.120,149.068 90.875,149.268 91.641 C 149.342 91.924,149.491 92.022,149.716 91.936 C 150.127 91.778,150.162 90.879,149.766 90.645 C 149.609 90.552,149.439 90.347,149.388 90.188 C 149.331 90.008,149.073 90.222,148.702 90.758 M147.122 93.216 C 146.356 94.419,146.346 94.464,146.772 94.890 C 146.947 95.065,147.090 95.310,147.090 95.435 C 147.090 95.722,147.656 95.732,147.832 95.448 C 148.035 95.119,147.733 94.392,147.393 94.392 C 147.226 94.392,147.090 94.201,147.090 93.968 C 147.090 93.733,147.231 93.545,147.407 93.545 C 147.582 93.545,147.725 93.695,147.725 93.878 C 147.725 94.353,148.443 94.163,148.539 93.662 C 148.582 93.439,148.480 93.154,148.311 93.030 C 148.143 92.906,147.957 92.661,147.897 92.487 C 147.824 92.271,147.576 92.505,147.122 93.216 M267.953 94.961 C 267.944 95.216,268.019 95.476,268.121 95.539 C 268.222 95.601,268.363 95.940,268.433 96.292 C 268.536 96.805,268.669 96.931,269.108 96.931 C 269.418 96.931,269.598 96.840,269.524 96.720 C 269.452 96.603,269.256 96.508,269.088 96.508 C 268.881 96.508,268.783 96.271,268.783 95.767 C 268.783 95.269,268.685 95.026,268.483 95.026 C 268.318 95.026,268.135 94.907,268.077 94.762 C 268.018 94.616,267.962 94.706,267.953 94.961 M145.753 96.214 C 145.881 96.548,146.162 96.599,146.334 96.320 C 146.398 96.217,146.268 96.085,146.045 96.027 C 145.762 95.953,145.674 96.009,145.753 96.214 M256.523 96.455 C 256.581 97.076,256.902 97.421,256.916 96.878 C 256.925 96.558,256.836 96.296,256.720 96.296 C 256.603 96.296,256.515 96.368,256.523 96.455 M132.063 96.931 C 132.063 97.166,131.922 97.354,131.746 97.354 C 131.526 97.354,131.429 97.575,131.429 98.071 C 131.429 98.609,131.323 98.814,131.005 98.897 C 130.652 98.990,130.582 99.186,130.582 100.086 C 130.582 101.159,130.227 101.576,130.012 100.755 C 129.949 100.512,129.785 100.393,129.609 100.461 C 129.179 100.625,129.244 101.096,129.769 101.621 L 130.227 102.079 130.616 101.598 C 130.952 101.183,131.128 100.419,131.025 99.826 C 131.008 99.730,131.088 99.709,131.201 99.779 C 131.315 99.849,131.524 99.499,131.666 99.001 C 131.809 98.503,132.051 97.945,132.206 97.761 C 132.535 97.370,132.582 96.508,132.275 96.508 C 132.159 96.508,132.063 96.698,132.063 96.931 M144.762 97.566 C 144.762 97.799,144.857 97.989,144.974 97.989 C 145.090 97.989,145.185 97.841,145.185 97.659 C 145.185 97.478,145.280 97.388,145.397 97.460 C 145.513 97.532,145.608 97.490,145.608 97.367 C 145.608 97.244,145.418 97.143,145.185 97.143 C 144.903 97.143,144.762 97.284,144.762 97.566 M256.906 97.922 C 256.657 98.230,256.657 98.256,256.910 98.104 C 257.107 97.985,257.303 98.057,257.492 98.315 C 257.727 98.636,257.778 98.646,257.778 98.373 C 257.778 97.789,257.240 97.510,256.906 97.922 M190.585 100.949 C 190.206 101.367,190.274 102.011,190.695 102.011 C 190.832 102.011,190.872 101.835,190.794 101.587 C 190.698 101.287,190.756 101.164,190.991 101.164 C 191.347 101.164,191.441 100.839,191.139 100.652 C 191.039 100.590,190.789 100.724,190.585 100.949 M191.896 101.587 C 191.808 101.924,191.890 102.011,192.295 102.011 C 192.663 102.011,192.804 101.893,192.804 101.587 C 192.804 101.314,192.663 101.164,192.406 101.164 C 192.185 101.164,191.958 101.353,191.896 101.587 M128.730 102.800 C 128.296 102.952,128.442 103.571,129.009 103.984 L 129.540 104.371 129.397 103.773 C 129.197 102.930,129.035 102.694,128.730 102.800 M270.939 103.333 C 271.017 104.145,271.602 104.288,271.711 103.521 C 271.756 103.203,271.698 103.073,271.552 103.164 C 271.425 103.242,271.323 103.159,271.323 102.975 C 271.323 102.794,271.221 102.646,271.098 102.646 C 270.971 102.646,270.902 102.947,270.939 103.333 M259.312 103.422 C 258.916 103.580,258.993 103.869,259.471 104.021 C 259.720 104.100,259.894 104.341,259.894 104.607 C 259.894 104.900,259.967 104.986,260.100 104.852 C 260.577 104.375,259.918 103.179,259.312 103.422 M194.210 106.830 C 193.875 107.371,193.835 109.978,194.157 110.246 C 194.465 110.502,194.497 110.347,194.497 108.597 C 194.497 106.771,194.445 106.449,194.210 106.830 M140.241 109.776 C 140.167 109.851,140.102 110.158,140.098 110.459 C 140.094 110.759,139.955 111.243,139.788 111.534 C 139.622 111.825,139.489 112.492,139.492 113.016 C 139.497 113.797,139.532 113.883,139.689 113.492 C 139.794 113.230,139.979 113.016,140.099 113.016 C 140.219 113.016,140.317 112.610,140.317 112.115 C 140.317 111.620,140.406 110.907,140.514 110.531 C 140.697 109.891,140.546 109.472,140.241 109.776 M273.019 112.116 C 273.017 112.728,273.111 113.228,273.228 113.228 C 273.498 113.228,273.498 111.742,273.228 111.323 C 273.081 111.095,273.021 111.321,273.019 112.116 M261.659 111.636 C 261.852 111.830,262.011 112.261,262.011 112.595 C 262.011 112.929,262.111 113.265,262.235 113.341 C 262.384 113.433,262.437 113.136,262.393 112.454 C 262.336 111.553,262.266 111.420,261.818 111.356 C 261.342 111.289,261.331 111.308,261.659 111.636 M127.520 112.313 C 127.410 112.900,127.325 113.018,127.174 112.790 C 127.036 112.581,126.992 112.783,127.032 113.437 C 127.141 115.216,127.831 114.865,127.831 113.031 C 127.831 111.363,127.738 111.150,127.520 112.313 M183.999 117.884 C 183.998 121.146,184.050 122.774,184.118 121.587 C 184.196 120.210,184.301 119.600,184.417 119.841 C 184.796 120.628,184.974 120.138,184.974 118.307 C 184.974 116.474,184.797 115.988,184.415 116.772 C 184.300 117.009,184.193 116.226,184.118 114.603 C 184.043 112.992,184.000 114.191,183.999 117.884 M194.174 116.667 C 193.928 117.329,193.976 120.700,194.233 120.789 C 194.434 120.860,194.497 120.342,194.497 118.642 C 194.497 116.550,194.412 116.027,194.174 116.667 M153.291 118.410 C 153.327 120.034,153.388 120.323,153.704 120.384 C 154.110 120.461,154.242 119.705,153.862 119.471 C 153.746 119.399,153.644 118.893,153.636 118.347 C 153.628 117.801,153.537 117.164,153.434 116.931 C 153.312 116.654,153.263 117.167,153.291 118.410 M162.645 117.463 C 162.471 118.010,162.887 118.746,163.284 118.594 C 163.717 118.427,163.677 117.962,163.185 117.471 C 162.781 117.067,162.771 117.066,162.645 117.463 M273.965 121.239 C 274.014 122.115,274.192 122.540,274.510 122.540 C 274.825 122.540,274.741 121.060,274.407 120.726 C 273.963 120.282,273.914 120.339,273.965 121.239 M263.122 121.841 C 262.976 121.895,262.859 122.242,262.860 122.610 C 262.863 123.121,262.912 123.205,263.069 122.963 C 263.233 122.708,263.275 122.743,263.277 123.139 C 263.281 123.791,263.789 123.626,263.871 122.946 C 263.944 122.347,263.503 121.698,263.122 121.841 M138.135 122.676 C 137.776 123.036,137.977 125.536,138.360 125.462 C 138.667 125.403,138.730 125.158,138.730 124.036 C 138.730 122.790,138.514 122.297,138.135 122.676 M179.101 124.596 C 178.955 124.649,178.836 124.826,178.836 124.991 C 178.836 125.156,178.693 125.291,178.519 125.291 C 178.342 125.291,178.201 125.479,178.201 125.714 C 178.201 125.947,178.130 126.126,178.042 126.113 C 177.580 126.040,177.354 126.179,177.354 126.538 C 177.354 127.087,177.935 127.278,178.092 126.781 C 178.161 126.565,178.356 126.335,178.527 126.270 C 178.697 126.204,178.836 125.957,178.836 125.721 C 178.836 125.432,178.975 125.291,179.259 125.291 C 179.492 125.291,179.683 125.154,179.683 124.986 C 179.683 124.618,179.459 124.468,179.101 124.596 M164.868 126.093 C 164.868 126.797,165.321 127.831,165.629 127.831 C 165.818 127.831,165.926 127.599,165.926 127.196 C 165.926 126.772,165.820 126.561,165.608 126.561 C 165.434 126.561,165.291 126.424,165.291 126.256 C 165.291 126.088,165.196 125.892,165.079 125.820 C 164.963 125.748,164.868 125.871,164.868 126.093 M154.233 126.930 C 153.956 126.994,153.869 127.213,153.887 127.793 C 153.912 128.558,153.915 128.561,154.051 127.937 C 154.222 127.150,154.410 127.418,154.606 128.728 C 154.812 130.104,155.205 129.773,155.085 128.325 C 154.983 127.087,154.807 126.799,154.233 126.930 M193.108 129.640 C 192.802 130.286,192.314 131.035,192.023 131.304 C 191.442 131.844,191.772 133.122,192.492 133.122 C 193.010 133.122,192.863 132.315,192.328 132.221 C 191.888 132.144,191.882 132.125,192.248 131.962 C 192.530 131.837,192.702 131.889,192.843 132.141 C 193.065 132.538,193.439 132.415,193.439 131.945 C 193.439 131.777,193.296 131.640,193.122 131.640 C 192.745 131.640,192.742 131.619,193.019 130.890 C 193.188 130.446,193.296 130.376,193.521 130.562 C 193.755 130.756,193.804 130.645,193.786 129.964 C 193.762 129.029,193.995 128.635,194.294 129.107 C 194.462 129.372,194.491 129.367,194.494 129.070 C 194.497 128.784,194.103 128.466,193.746 128.466 C 193.700 128.466,193.413 128.994,193.108 129.640 M274.333 129.372 C 273.941 130.178,273.861 132.653,274.223 132.791 C 274.855 133.034,274.921 132.868,274.921 131.018 C 274.921 129.073,274.733 128.549,274.333 129.372 M263.425 129.661 C 263.346 129.741,263.280 130.034,263.280 130.312 C 263.280 130.596,263.187 130.761,263.069 130.688 C 262.936 130.606,262.857 131.043,262.857 131.852 C 262.857 132.595,262.941 133.095,263.054 133.025 C 263.162 132.958,263.281 133.099,263.318 133.339 C 263.502 134.514,263.815 133.683,263.871 131.871 C 263.928 130.028,263.782 129.305,263.425 129.661 M138.135 131.777 C 137.931 131.981,137.952 135.613,138.158 135.741 C 138.668 136.056,138.851 135.450,138.792 133.650 C 138.735 131.933,138.539 131.373,138.135 131.777 M190.362 132.501 C 190.285 132.625,190.273 132.777,190.335 132.840 C 190.487 132.991,190.899 132.724,190.899 132.474 C 190.899 132.204,190.534 132.222,190.362 132.501 M188.924 133.051 C 188.716 133.259,188.759 134.448,188.986 134.809 C 189.314 135.327,189.521 134.843,189.264 134.160 C 189.068 133.641,189.079 133.499,189.325 133.405 C 189.491 133.341,189.575 133.204,189.510 133.100 C 189.371 132.875,189.121 132.855,188.924 133.051 M178.578 133.238 C 178.434 133.383,178.556 135.017,178.760 135.655 C 178.905 136.113,179.255 135.510,179.246 134.815 C 179.238 134.137,178.775 133.042,178.578 133.238 M167.196 133.598 C 167.196 133.918,167.898 135.799,168.087 135.989 C 168.161 136.063,168.396 136.022,168.608 135.899 C 168.966 135.691,168.968 135.674,168.624 135.668 C 168.334 135.663,168.254 135.478,168.254 134.815 C 168.254 134.203,168.166 133.968,167.937 133.968 C 167.762 133.968,167.619 133.825,167.619 133.651 C 167.619 133.476,167.524 133.333,167.407 133.333 C 167.291 133.333,167.196 133.452,167.196 133.598 M156.455 135.599 C 156.096 135.732,156.118 136.296,156.483 136.296 C 156.644 136.296,156.848 136.511,156.936 136.772 C 157.089 137.224,157.102 137.217,157.190 136.638 C 157.289 135.986,156.899 135.434,156.455 135.599 M274.331 139.827 C 273.905 140.935,273.886 143.069,274.302 143.069 C 274.789 143.069,274.921 142.643,274.917 141.094 C 274.913 139.504,274.663 138.963,274.331 139.827 M191.118 139.589 C 191.103 140.102,191.707 140.645,191.986 140.370 C 192.202 140.157,192.186 140.106,191.905 140.106 C 191.713 140.106,191.458 139.939,191.340 139.735 C 191.221 139.532,191.121 139.466,191.118 139.589 M263.408 140.019 C 263.338 140.202,263.274 140.559,263.266 140.811 C 263.251 141.255,263.245 141.256,263.069 140.847 C 262.946 140.562,262.889 140.943,262.893 142.011 C 262.897 143.112,262.951 143.436,263.069 143.069 C 263.225 142.582,263.240 142.577,263.259 142.999 C 263.354 145.054,263.915 144.118,263.915 141.905 C 263.915 140.045,263.702 139.253,263.408 140.019 M171.217 140.292 C 171.217 140.413,171.029 140.687,170.800 140.901 C 170.304 141.363,170.814 142.976,171.386 142.756 C 171.545 142.695,171.762 142.646,171.869 142.646 C 171.976 142.646,172.052 142.431,172.039 142.169 C 172.020 141.811,171.990 141.785,171.918 142.063 C 171.864 142.267,171.685 142.434,171.519 142.434 C 171.104 142.434,171.130 141.454,171.549 141.293 C 171.934 141.146,171.883 140.290,171.481 140.158 C 171.336 140.110,171.217 140.170,171.217 140.292 M180.887 141.693 C 180.965 142.270,180.913 142.434,180.652 142.434 C 180.421 142.434,180.317 142.631,180.317 143.069 C 180.317 143.563,180.412 143.704,180.741 143.704 C 180.974 143.704,181.164 143.595,181.164 143.462 C 181.164 143.330,181.318 143.109,181.505 142.972 C 181.816 142.745,181.806 142.642,181.395 141.837 C 180.845 140.760,180.758 140.735,180.887 141.693 M192.274 141.226 C 192.187 141.435,192.163 141.651,192.219 141.707 C 192.375 141.863,193.016 141.568,193.016 141.341 C 193.016 141.230,192.929 141.193,192.822 141.259 C 192.716 141.324,192.584 141.259,192.529 141.112 C 192.462 140.933,192.379 140.970,192.274 141.226 M137.989 144.021 C 137.989 145.852,138.028 146.055,138.360 145.991 C 138.680 145.930,138.730 145.661,138.730 144.021 C 138.730 142.381,138.680 142.112,138.360 142.051 C 138.028 141.987,137.989 142.191,137.989 144.021 M158.995 143.194 C 158.733 143.494,158.519 143.864,158.519 144.016 C 158.519 144.425,159.148 144.598,159.290 144.229 C 159.455 143.798,159.948 143.834,160.066 144.286 C 160.128 144.523,160.171 144.456,160.187 144.098 C 160.201 143.790,160.045 143.339,159.841 143.094 L 159.471 142.649 158.995 143.194 M196.614 145.926 C 196.614 146.101,196.757 146.243,196.931 146.243 C 197.106 146.243,197.249 146.101,197.249 145.926 C 197.249 145.751,197.106 145.608,196.931 145.608 C 196.757 145.608,196.614 145.751,196.614 145.926 M197.354 146.455 C 197.177 146.742,197.416 147.090,197.790 147.090 C 197.958 147.090,198.095 146.899,198.095 146.667 C 198.095 146.229,197.585 146.083,197.354 146.455 M174.197 147.811 C 174.012 148.033,174.023 148.173,174.245 148.395 C 174.405 148.555,174.648 148.895,174.785 149.150 C 174.947 149.454,175.151 149.568,175.377 149.482 C 175.689 149.362,175.690 149.327,175.388 149.106 C 175.204 148.972,174.990 148.606,174.911 148.292 C 174.733 147.581,174.511 147.432,174.197 147.811 M184.687 148.734 C 184.796 149.314,184.761 149.404,184.472 149.293 C 184.199 149.189,184.127 149.298,184.127 149.819 C 184.127 150.262,184.230 150.476,184.444 150.476 C 184.619 150.476,184.762 150.374,184.762 150.249 C 184.762 150.125,184.905 149.880,185.079 149.705 C 185.494 149.291,185.480 149.141,184.978 148.542 L 184.558 148.042 184.687 148.734 M162.024 149.191 C 161.822 149.415,161.688 149.764,161.727 149.967 C 161.819 150.441,162.328 150.618,162.328 150.176 C 162.328 149.992,162.471 149.841,162.646 149.841 C 162.847 149.841,162.963 150.044,162.963 150.393 C 162.963 150.818,163.043 150.914,163.310 150.811 C 163.601 150.700,163.614 150.731,163.390 151.000 C 163.223 151.202,163.207 151.323,163.348 151.323 C 163.796 151.323,163.817 150.898,163.410 150.099 C 162.801 148.906,162.476 148.693,162.024 149.191 M274.339 149.784 C 273.872 149.947,273.975 153.489,274.444 153.400 C 274.749 153.341,274.826 153.058,274.877 151.795 C 274.942 150.199,274.789 149.627,274.339 149.784 M263.408 150.389 C 263.338 150.572,263.271 150.977,263.259 151.287 L 263.238 151.852 263.069 151.323 C 262.951 150.956,262.897 151.280,262.893 152.381 C 262.889 153.326,262.952 153.801,263.049 153.555 C 263.186 153.203,263.231 153.245,263.349 153.833 C 263.608 155.128,263.915 154.281,263.915 152.275 C 263.915 150.416,263.702 149.623,263.408 150.389 M202.463 151.642 C 202.381 151.854,202.411 152.125,202.529 152.244 C 202.853 152.567,202.996 152.294,202.792 151.743 C 202.628 151.300,202.597 151.291,202.463 151.642 M138.116 152.325 C 137.728 152.713,137.995 156.190,138.413 156.190 C 138.804 156.190,138.836 156.049,138.836 154.308 C 138.836 152.522,138.592 151.849,138.116 152.325 M242.963 152.372 C 242.963 152.499,242.717 152.697,242.417 152.811 C 241.784 153.051,241.834 153.514,242.503 153.613 C 242.809 153.658,242.963 153.569,242.963 153.348 C 242.963 153.118,243.164 153.016,243.613 153.016 C 244.119 153.016,244.248 152.933,244.194 152.646 C 244.117 152.239,242.963 151.983,242.963 152.372 M220.230 153.094 C 220.292 153.254,220.193 153.441,220.012 153.511 C 219.831 153.581,219.683 153.736,219.683 153.856 C 219.683 154.171,220.224 154.124,220.507 153.783 C 220.759 153.480,220.617 152.804,220.301 152.804 C 220.201 152.804,220.169 152.935,220.230 153.094 M188.520 153.670 C 188.663 153.856,188.717 154.070,188.640 154.146 C 188.564 154.223,188.660 154.286,188.854 154.286 C 189.065 154.286,189.206 154.455,189.206 154.709 C 189.206 154.944,189.347 155.132,189.524 155.132 C 190.119 155.132,189.821 154.575,188.787 153.752 C 188.461 153.493,188.360 153.462,188.520 153.670 M179.259 154.036 C 179.259 154.248,179.497 154.628,179.788 154.881 C 180.079 155.134,180.317 155.443,180.317 155.567 C 180.317 155.691,180.413 155.733,180.529 155.661 C 180.853 155.461,180.780 154.711,180.423 154.574 C 180.249 154.507,180.106 154.272,180.106 154.051 C 180.106 153.792,179.957 153.651,179.683 153.651 C 179.414 153.651,179.259 153.792,179.259 154.036 M208.461 154.082 C 208.268 154.444,208.308 154.497,208.776 154.497 C 209.093 154.497,209.312 154.377,209.312 154.203 C 209.312 153.714,208.704 153.628,208.461 154.082 M165.844 154.882 C 165.774 154.996,165.952 155.313,166.241 155.587 C 166.883 156.196,166.911 156.528,166.334 156.679 C 165.698 156.845,165.839 157.962,166.508 158.057 C 166.856 158.106,166.984 158.018,166.984 157.729 C 166.984 157.511,167.089 157.229,167.217 157.101 C 167.345 156.973,167.389 156.692,167.315 156.476 C 167.104 155.863,165.987 154.651,165.844 154.882 M208.290 155.253 C 208.503 155.469,208.790 155.558,209.009 155.474 C 209.455 155.302,209.385 155.234,208.571 155.042 C 207.975 154.902,207.958 154.915,208.290 155.253 M188.571 155.774 C 188.571 156.466,189.071 156.834,189.469 156.436 C 189.640 156.265,189.637 156.058,189.459 155.667 C 189.112 154.905,188.571 154.970,188.571 155.774 M209.524 155.767 C 209.524 155.884,209.720 155.979,209.960 155.979 C 210.199 155.979,210.336 155.884,210.265 155.767 C 210.193 155.651,209.997 155.556,209.829 155.556 C 209.661 155.556,209.524 155.651,209.524 155.767 M247.653 156.998 C 247.631 157.178,247.467 157.229,247.192 157.142 C 246.782 157.012,246.777 157.036,247.071 157.709 C 247.239 158.096,247.449 158.603,247.538 158.836 C 247.749 159.389,247.902 158.459,247.772 157.411 C 247.725 157.031,247.672 156.845,247.653 156.998 M193.568 158.481 C 193.493 158.602,193.529 158.761,193.647 158.834 C 193.977 159.038,193.903 159.577,193.545 159.577 C 193.370 159.577,193.228 159.672,193.228 159.788 C 193.228 160.070,193.509 160.057,193.806 159.760 C 193.938 159.628,194.209 159.583,194.408 159.659 C 194.782 159.803,194.651 160.106,194.215 160.106 C 194.079 160.106,193.938 160.320,193.901 160.582 C 193.790 161.359,194.565 161.193,194.874 160.374 C 195.144 159.661,193.928 157.899,193.568 158.481 M183.069 160.106 C 183.069 160.164,183.256 160.399,183.484 160.627 C 183.948 161.091,184.323 160.809,183.908 160.308 C 183.667 160.019,183.069 159.874,183.069 160.106 M263.472 160.265 C 263.454 160.352,263.415 160.519,263.386 160.635 C 263.357 160.751,263.321 160.995,263.307 161.177 C 263.292 161.358,263.185 161.448,263.069 161.376 C 262.937 161.294,262.857 161.726,262.857 162.527 C 262.857 163.241,262.951 163.810,263.069 163.810 C 263.185 163.810,263.280 164.008,263.280 164.250 C 263.280 165.721,263.817 164.291,263.871 162.677 C 263.919 161.229,263.632 159.493,263.472 160.265 M274.124 161.842 C 273.889 163.451,273.922 163.598,274.519 163.598 C 274.905 163.598,274.934 163.474,274.877 162.080 C 274.795 160.074,274.402 159.949,274.124 161.842 M171.130 162.222 C 171.230 162.622,171.180 162.751,170.922 162.751 C 170.685 162.751,170.582 162.944,170.582 163.386 C 170.582 163.856,170.681 164.021,170.963 164.021 C 171.491 164.021,171.960 162.714,171.644 162.123 C 171.320 161.518,170.970 161.585,171.130 162.222 M137.989 164.550 C 137.989 166.381,138.028 166.585,138.360 166.521 C 138.680 166.459,138.730 166.191,138.730 164.550 C 138.730 162.910,138.680 162.642,138.360 162.580 C 138.028 162.516,137.989 162.720,137.989 164.550 M188.360 163.915 C 188.360 164.090,188.503 164.233,188.677 164.233 C 188.852 164.233,188.995 164.090,188.995 163.915 C 188.995 163.741,188.852 163.598,188.677 163.598 C 188.503 163.598,188.360 163.741,188.360 163.915 M228.151 164.815 C 228.168 165.617,231.555 165.819,231.706 165.026 C 231.769 164.697,231.576 164.656,229.963 164.656 C 228.965 164.656,228.150 164.728,228.151 164.815 M188.291 165.164 C 188.179 165.457,188.305 165.714,188.561 165.714 C 188.633 165.714,188.692 165.524,188.692 165.291 C 188.692 164.803,188.458 164.729,188.291 165.164 M189.841 165.311 C 189.841 165.573,189.989 165.714,190.265 165.714 C 190.497 165.714,190.688 165.583,190.688 165.422 C 190.688 165.260,190.497 165.079,190.265 165.018 C 189.951 164.936,189.841 165.012,189.841 165.311 M248.070 166.502 C 247.742 167.526,247.618 169.101,247.866 169.101 C 247.970 169.101,248.133 169.308,248.226 169.561 C 248.344 169.880,248.440 169.410,248.538 168.038 C 248.690 165.899,248.482 165.216,248.070 166.502 M206.389 166.362 C 206.440 166.515,206.606 166.682,206.759 166.733 C 206.918 166.786,206.997 166.706,206.944 166.548 C 206.894 166.395,206.727 166.228,206.574 166.177 C 206.415 166.124,206.336 166.204,206.389 166.362 M175.026 166.984 C 175.026 167.101,175.158 167.196,175.319 167.196 C 175.480 167.196,175.662 167.386,175.723 167.619 C 175.784 167.852,176.003 168.042,176.210 168.042 C 176.520 168.042,176.479 167.930,175.979 167.407 C 175.355 166.756,175.026 166.610,175.026 166.984 M207.619 166.959 C 207.619 167.155,208.491 167.453,208.636 167.307 C 208.682 167.261,208.657 167.122,208.580 166.998 C 208.412 166.727,207.619 166.695,207.619 166.959 M174.321 167.337 C 174.022 167.636,174.197 168.298,174.603 168.404 C 174.837 168.466,175.026 168.693,175.026 168.914 C 175.026 169.198,175.178 169.312,175.556 169.312 C 176.202 169.312,176.330 168.332,175.714 168.103 C 175.511 168.027,175.219 167.791,175.067 167.580 C 174.776 167.175,174.555 167.103,174.321 167.337 M194.198 169.025 C 194.039 169.439,194.057 169.462,194.603 169.557 C 194.909 169.609,195.045 169.497,195.094 169.153 C 195.176 168.578,194.411 168.468,194.198 169.025 M215.146 169.078 C 215.082 169.181,215.386 169.311,215.822 169.365 C 216.719 169.477,216.958 169.381,216.502 169.092 C 216.104 168.841,215.298 168.832,215.146 169.078 M195.132 169.841 C 195.132 170.016,195.275 170.159,195.450 170.159 C 195.624 170.159,195.767 170.016,195.767 169.841 C 195.767 169.667,195.624 169.524,195.450 169.524 C 195.275 169.524,195.132 169.667,195.132 169.841 M215.778 170.134 C 215.888 170.237,216.407 170.249,216.931 170.161 L 217.884 170.000 216.730 169.974 C 216.053 169.958,215.660 170.024,215.778 170.134 M274.339 170.497 C 273.949 171.508,273.883 173.778,274.239 173.914 C 274.717 174.098,274.915 173.544,274.903 172.063 C 274.887 170.245,274.669 169.639,274.339 170.497 M263.408 170.918 C 263.338 171.101,263.271 171.458,263.259 171.710 C 263.240 172.132,263.225 172.127,263.069 171.640 C 262.951 171.273,262.897 171.597,262.893 172.698 C 262.889 173.766,262.946 174.147,263.069 173.862 C 263.245 173.453,263.251 173.454,263.266 173.898 C 263.333 175.982,263.915 175.002,263.915 172.804 C 263.915 170.945,263.702 170.152,263.408 170.918 M181.019 172.627 C 181.100 172.763,181.047 172.916,180.901 172.967 C 180.755 173.018,180.901 173.062,181.226 173.065 C 181.551 173.067,181.789 173.054,181.755 173.035 C 181.721 173.017,181.508 172.862,181.282 172.691 C 181.056 172.521,180.938 172.492,181.019 172.627 M138.116 172.854 C 138.046 172.924,137.989 173.806,137.989 174.815 C 137.989 176.739,138.055 176.974,138.539 176.788 C 138.763 176.702,138.836 176.215,138.836 174.815 C 138.836 173.051,138.590 172.380,138.116 172.854 M200.111 174.171 C 200.024 174.313,200.057 174.533,200.184 174.660 C 200.509 174.986,200.715 174.709,200.472 174.274 C 200.324 174.010,200.228 173.982,200.111 174.171 M206.065 176.603 C 205.968 176.855,206.088 176.931,206.585 176.931 C 207.007 176.931,207.201 176.840,207.144 176.667 C 207.014 176.271,206.211 176.223,206.065 176.603 M248.081 176.738 C 247.764 177.597,247.606 179.259,247.842 179.259 C 247.959 179.259,248.133 179.467,248.227 179.722 C 248.349 180.053,248.440 179.681,248.546 178.417 C 248.698 176.592,248.457 175.721,248.081 176.738 M185.185 176.720 C 184.945 176.875,185.038 176.926,185.568 176.928 C 185.982 176.930,186.215 176.845,186.138 176.720 C 185.973 176.454,185.597 176.454,185.185 176.720 M207.032 177.708 C 206.536 178.265,206.573 178.624,207.125 178.624 C 207.341 178.624,207.408 178.507,207.321 178.280 C 207.243 178.078,207.334 177.829,207.542 177.677 C 207.736 177.535,207.807 177.365,207.700 177.298 C 207.592 177.232,207.292 177.417,207.032 177.708 M184.798 177.708 C 184.839 177.923,185.091 178.126,185.365 178.165 C 185.746 178.220,185.841 178.148,185.784 177.848 C 185.743 177.633,185.491 177.429,185.217 177.390 C 184.836 177.336,184.741 177.408,184.798 177.708 M186.667 177.434 C 186.667 177.478,186.810 177.633,186.984 177.778 C 187.244 177.994,187.302 177.979,187.302 177.698 C 187.302 177.509,187.159 177.354,186.984 177.354 C 186.810 177.354,186.667 177.390,186.667 177.434 M213.698 180.507 C 213.243 181.276,213.240 181.506,213.681 181.675 C 214.161 181.860,214.295 181.664,213.964 181.264 C 213.728 180.980,213.756 180.913,214.155 180.808 C 214.428 180.737,214.597 180.550,214.561 180.361 C 214.452 179.801,214.077 179.865,213.698 180.507 M263.380 181.395 C 263.193 181.985,263.485 185.185,263.726 185.185 C 263.830 185.185,263.915 184.233,263.915 183.069 C 263.915 181.075,263.698 180.394,263.380 181.395 M274.178 182.024 C 274.015 183.211,274.064 183.352,274.573 183.157 C 275.035 182.980,275.081 180.952,274.623 180.952 C 274.426 180.952,274.276 181.314,274.178 182.024 M192.280 181.671 C 192.603 182.163,193.409 182.536,193.642 182.301 C 193.793 182.147,192.564 181.166,192.217 181.165 C 192.017 181.164,192.033 181.294,192.280 181.671 M262.911 182.540 C 262.913 183.005,262.956 183.171,263.007 182.908 C 263.057 182.644,263.056 182.263,263.003 182.061 C 262.950 181.859,262.908 182.074,262.911 182.540 M192.381 183.069 C 192.381 183.584,193.120 183.654,193.311 183.157 C 193.500 182.663,193.486 182.646,192.910 182.646 C 192.522 182.646,192.381 182.758,192.381 183.069 M138.116 183.224 C 138.046 183.294,137.999 183.787,138.010 184.321 L 138.031 185.291 138.276 184.375 C 138.411 183.871,138.592 183.530,138.678 183.617 C 138.765 183.703,138.836 183.673,138.836 183.550 C 138.836 183.285,138.298 183.042,138.116 183.224 M222.030 183.476 C 221.682 183.740,221.566 183.979,221.664 184.233 C 221.790 184.563,221.867 184.539,222.347 184.021 C 222.990 183.327,222.757 182.927,222.030 183.476 M126.173 184.709 C 126.154 184.971,126.001 185.185,125.834 185.185 C 125.508 185.185,125.362 185.567,125.319 186.538 C 125.303 186.874,125.124 187.277,124.921 187.433 C 124.597 187.681,124.590 187.744,124.868 187.929 C 125.362 188.259,125.596 188.073,125.731 187.242 C 125.800 186.822,125.973 186.336,126.116 186.163 C 126.262 185.988,126.340 185.494,126.293 185.041 C 126.246 184.597,126.193 184.447,126.173 184.709 M229.849 186.128 C 229.708 186.298,229.655 186.536,229.730 186.657 C 229.904 186.940,230.899 186.948,230.899 186.667 C 230.899 186.550,230.804 186.455,230.688 186.455 C 230.329 186.455,230.454 186.068,230.847 185.966 C 231.085 185.904,231.019 185.860,230.661 185.845 C 230.355 185.831,229.990 185.959,229.849 186.128 M238.153 186.190 C 238.076 186.394,237.889 186.687,237.737 186.841 C 237.340 187.242,237.396 187.513,237.876 187.513 C 238.336 187.513,238.730 186.933,238.730 186.257 C 238.730 185.724,238.347 185.680,238.153 186.190 M248.054 186.971 C 247.679 187.929,247.607 189.630,247.942 189.630 C 248.094 189.630,248.260 189.749,248.309 189.894 C 248.359 190.040,248.468 189.538,248.550 188.780 C 248.634 188.008,248.612 187.169,248.499 186.875 L 248.298 186.349 248.054 186.971 M205.617 189.009 C 205.694 189.133,205.606 189.347,205.422 189.485 C 205.210 189.644,205.152 189.839,205.266 190.018 C 205.402 190.235,205.548 190.168,205.894 189.728 C 206.365 189.129,206.329 188.783,205.795 188.783 C 205.621 188.783,205.540 188.885,205.617 189.009 M276.207 189.445 C 276.188 189.839,276.689 190.330,276.898 190.122 C 277.135 189.885,277.052 189.630,276.737 189.630 C 276.572 189.630,276.389 189.511,276.331 189.365 C 276.263 189.197,276.218 189.226,276.207 189.445 M122.469 189.771 C 122.072 190.167,122.421 190.984,123.074 191.188 C 123.464 191.309,123.496 191.244,123.422 190.475 C 123.345 189.666,122.902 189.338,122.469 189.771 M264.976 190.952 C 264.981 192.052,265.197 192.593,265.633 192.593 C 266.136 192.593,266.132 192.450,265.599 191.244 C 265.085 190.084,264.973 190.031,264.976 190.952 M121.861 191.526 C 121.713 191.764,121.471 191.958,121.325 191.958 C 121.178 191.958,121.058 192.094,121.058 192.261 C 121.058 192.428,120.868 192.625,120.635 192.698 C 120.402 192.772,120.212 192.969,120.212 193.136 C 120.212 193.303,120.069 193.439,119.894 193.439 C 119.720 193.439,119.577 193.547,119.577 193.679 C 119.577 193.949,118.593 194.921,118.321 194.921 C 118.224 194.921,118.095 195.111,118.034 195.344 C 117.973 195.577,117.771 195.767,117.586 195.767 C 117.390 195.767,117.249 195.944,117.249 196.190 C 117.249 196.713,117.741 196.738,118.310 196.243 C 119.529 195.184,121.905 192.690,121.905 192.469 C 121.905 192.329,122.048 192.160,122.222 192.093 C 122.578 191.956,122.648 191.415,122.335 191.221 C 122.222 191.152,122.009 191.289,121.861 191.526 M213.122 192.053 C 213.122 192.222,212.983 192.437,212.814 192.532 C 212.617 192.643,212.570 192.809,212.686 192.995 C 212.829 193.227,212.982 193.178,213.443 192.750 C 214.018 192.218,214.010 191.746,213.427 191.746 C 213.259 191.746,213.122 191.884,213.122 192.053 M220.589 194.135 C 220.654 194.306,220.596 194.560,220.460 194.699 C 220.268 194.896,220.356 194.938,220.847 194.884 C 221.660 194.795,221.763 194.008,220.976 193.897 C 220.602 193.844,220.501 193.906,220.589 194.135 M281.302 194.338 C 280.970 194.670,280.994 195.132,281.343 195.132 C 281.500 195.132,281.846 195.321,282.111 195.551 C 282.377 195.782,282.677 195.919,282.779 195.856 C 283.089 195.664,282.983 194.921,282.646 194.921 C 282.471 194.921,282.328 194.829,282.328 194.716 C 282.328 194.350,281.570 194.070,281.302 194.338 M228.304 195.470 C 228.234 195.540,228.225 195.722,228.284 195.875 C 228.343 196.028,228.217 196.198,228.005 196.253 C 227.793 196.308,228.012 196.364,228.493 196.378 C 229.459 196.405,230.003 196.013,229.582 195.593 C 229.321 195.331,228.520 195.255,228.304 195.470 M267.912 197.018 C 268.106 197.140,268.163 197.409,268.079 197.808 C 268.010 198.141,268.005 198.294,268.068 198.148 C 268.252 197.725,268.783 197.843,268.783 198.307 C 268.783 198.542,268.642 198.730,268.466 198.730 C 268.254 198.730,268.148 198.942,268.148 199.365 C 268.148 199.859,268.242 200.000,268.571 200.000 C 268.946 200.000,269.110 199.671,269.020 199.101 C 269.006 199.013,269.090 198.942,269.206 198.942 C 269.548 198.942,269.455 198.612,268.851 197.691 C 268.540 197.215,268.135 196.827,267.952 196.829 C 267.679 196.831,267.672 196.865,267.912 197.018 M114.921 197.672 C 114.921 198.196,115.867 198.269,116.062 197.760 C 116.254 197.261,116.242 197.249,115.556 197.249 C 115.062 197.249,114.921 197.343,114.921 197.672 M132.760 199.153 C 132.699 199.386,132.533 199.577,132.390 199.577 C 132.248 199.577,132.023 199.815,131.890 200.106 C 131.652 200.628,131.217 200.834,131.217 200.423 C 131.217 200.307,131.318 200.212,131.441 200.212 C 131.564 200.212,131.601 200.107,131.522 199.980 C 131.339 199.684,129.517 201.445,129.541 201.896 C 129.552 202.114,129.593 202.134,129.664 201.958 C 129.790 201.644,130.582 201.599,130.582 201.905 C 130.582 202.021,130.677 202.116,130.794 202.116 C 130.910 202.116,131.005 201.974,131.005 201.799 C 131.005 201.624,130.854 201.481,130.670 201.481 C 130.237 201.481,130.402 200.974,130.864 200.884 C 131.073 200.843,131.217 200.951,131.217 201.149 C 131.217 201.705,131.744 201.523,132.396 200.741 C 132.736 200.333,133.133 200.000,133.279 200.000 C 133.433 200.000,133.545 199.733,133.545 199.365 C 133.545 198.627,132.940 198.464,132.760 199.153 M287.555 199.014 C 287.392 199.439,287.940 199.873,288.410 199.692 C 288.755 199.559,288.752 199.531,288.360 199.316 C 288.127 199.188,287.878 198.996,287.807 198.889 C 287.736 198.782,287.623 198.839,287.555 199.014 M113.163 199.776 C 113.226 200.016,113.368 200.212,113.479 200.212 C 113.760 200.212,113.601 199.525,113.297 199.423 C 113.139 199.371,113.091 199.499,113.163 199.776 M110.727 200.651 C 110.476 201.052,110.495 201.085,110.940 201.022 C 111.209 200.984,111.429 200.817,111.429 200.653 C 111.429 200.173,111.026 200.172,110.727 200.651 M101.517 201.199 C 101.248 201.468,101.377 201.693,101.799 201.693 C 102.034 201.693,102.222 201.552,102.222 201.376 C 102.222 201.053,101.775 200.942,101.517 201.199 M304.590 202.910 C 304.629 203.114,304.874 203.311,305.134 203.348 C 305.395 203.385,305.608 203.552,305.608 203.718 C 305.608 203.885,305.751 204.021,305.926 204.021 C 306.101 204.021,306.243 203.878,306.243 203.704 C 306.243 203.529,306.112 203.386,305.951 203.386 C 305.790 203.386,305.608 203.196,305.547 202.963 C 305.404 202.415,304.486 202.364,304.590 202.910 M98.532 202.941 C 98.468 203.045,98.567 203.189,98.753 203.260 C 98.946 203.334,99.039 203.526,98.970 203.705 C 98.897 203.897,98.972 204.021,99.160 204.021 C 99.525 204.021,99.556 203.730,99.252 203.161 C 99.017 202.723,98.723 202.633,98.532 202.941 M100.529 203.069 C 100.529 203.243,100.624 203.386,100.741 203.386 C 100.857 203.386,100.952 203.243,100.952 203.069 C 100.952 202.894,100.857 202.751,100.741 202.751 C 100.624 202.751,100.529 202.894,100.529 203.069 M127.090 204.021 C 126.309 204.810,125.962 205.291,126.174 205.291 C 126.362 205.291,126.570 205.148,126.637 204.974 C 126.704 204.799,126.894 204.656,127.059 204.656 C 127.223 204.656,127.408 204.466,127.469 204.233 C 127.585 203.789,128.136 203.658,128.360 204.021 C 128.432 204.138,128.580 204.233,128.690 204.233 C 128.799 204.233,128.889 204.138,128.889 204.021 C 128.889 203.905,128.746 203.810,128.571 203.810 C 128.397 203.810,128.254 203.667,128.254 203.492 C 128.254 203.313,128.443 203.175,128.690 203.175 C 128.929 203.175,129.067 203.079,128.995 202.963 C 128.736 202.544,128.326 202.772,127.090 204.021 M273.228 203.633 C 273.228 203.769,273.288 203.820,273.361 203.746 C 273.435 203.673,273.697 203.710,273.943 203.829 C 274.379 204.038,274.380 204.035,273.981 203.715 C 273.492 203.324,273.228 203.295,273.228 203.633 M96.561 205.310 C 96.299 205.408,96.085 205.635,96.085 205.813 C 96.085 205.996,95.900 206.138,95.661 206.138 C 95.429 206.138,95.249 206.209,95.263 206.296 C 95.339 206.777,95.205 207.017,94.921 206.908 C 94.705 206.825,94.603 206.919,94.603 207.202 C 94.603 207.453,94.460 207.619,94.243 207.619 C 93.957 207.619,93.937 207.673,94.146 207.881 C 94.355 208.090,94.591 207.947,95.299 207.183 C 95.789 206.655,96.415 206.068,96.690 205.879 C 97.309 205.454,97.220 205.062,96.561 205.310 M126.772 205.608 C 126.772 205.805,126.573 205.926,126.251 205.926 C 125.946 205.926,125.635 206.102,125.503 206.349 C 125.378 206.582,125.130 206.772,124.951 206.772 C 124.447 206.772,124.697 207.503,125.226 207.579 C 125.519 207.621,125.770 207.487,125.919 207.209 C 126.047 206.969,126.292 206.772,126.462 206.772 C 126.633 206.772,126.772 206.582,126.772 206.349 C 126.772 206.114,126.914 205.926,127.090 205.926 C 127.265 205.926,127.407 205.783,127.407 205.608 C 127.407 205.434,127.265 205.291,127.090 205.291 C 126.915 205.291,126.772 205.434,126.772 205.608 M279.222 207.758 C 279.299 207.835,279.264 208.015,279.145 208.159 C 278.980 208.357,279.134 208.439,279.781 208.501 C 280.791 208.597,280.876 208.389,280.011 207.942 C 279.361 207.606,278.982 207.518,279.222 207.758 M92.751 207.987 C 92.376 208.116,92.422 208.889,92.804 208.889 C 93.002 208.889,93.122 209.089,93.122 209.418 C 93.122 209.747,93.002 209.947,92.804 209.947 C 92.630 209.947,92.487 209.799,92.487 209.617 C 92.487 209.436,92.387 209.349,92.265 209.424 C 92.129 209.509,92.097 209.921,92.183 210.495 C 92.277 211.124,92.246 211.429,92.088 211.429 C 91.958 211.429,91.852 211.286,91.852 211.111 C 91.852 210.937,91.709 210.794,91.534 210.794 C 91.141 210.794,91.104 211.769,91.483 212.149 C 91.889 212.554,92.225 212.329,92.502 211.468 C 92.639 211.039,92.874 210.545,93.023 210.370 C 93.358 209.979,93.616 208.466,93.348 208.466 C 93.240 208.466,93.122 208.337,93.084 208.181 C 93.047 208.024,92.897 207.937,92.751 207.987 M279.577 209.312 C 279.577 209.429,279.720 209.524,279.894 209.524 C 280.069 209.524,280.212 209.429,280.212 209.312 C 280.212 209.196,280.069 209.101,279.894 209.101 C 279.720 209.101,279.577 209.196,279.577 209.312 M308.279 210.317 C 308.456 211.056,308.548 211.217,308.796 211.217 C 309.141 211.217,309.019 210.002,308.660 209.864 C 308.150 209.668,308.130 209.692,308.279 210.317 M285.865 211.005 C 285.732 211.514,286.241 211.593,286.432 211.094 C 286.612 210.625,286.599 210.582,286.268 210.582 C 286.107 210.582,285.925 210.772,285.865 211.005 M112.169 211.640 C 112.169 211.873,112.280 212.063,112.416 212.063 C 112.552 212.063,112.600 212.001,112.524 211.924 C 112.447 211.848,112.491 211.657,112.620 211.501 C 112.801 211.283,112.776 211.217,112.513 211.217 C 112.310 211.217,112.169 211.391,112.169 211.640 M294.286 212.063 C 294.358 212.180,294.643 212.275,294.921 212.275 C 295.537 212.275,295.808 212.629,295.294 212.764 C 294.996 212.841,295.013 212.866,295.374 212.886 C 295.898 212.914,296.230 212.287,295.827 212.031 C 295.433 211.780,294.128 211.808,294.286 212.063 M103.280 218.737 C 103.280 219.068,104.235 219.639,104.388 219.399 C 104.646 218.994,104.572 218.806,104.180 218.870 C 103.976 218.904,103.690 218.857,103.545 218.765 C 103.399 218.674,103.280 218.661,103.280 218.737 M308.489 218.798 C 308.430 218.893,308.353 219.417,308.318 219.962 C 308.283 220.506,308.203 220.952,308.140 220.952 C 308.078 220.952,308.012 221.143,307.995 221.376 C 307.976 221.617,308.093 221.799,308.267 221.799 C 308.474 221.799,308.571 221.561,308.571 221.058 C 308.571 220.651,308.667 220.317,308.783 220.317 C 308.899 220.317,308.995 219.937,308.995 219.471 C 308.995 218.695,308.752 218.372,308.489 218.798 M91.647 219.524 C 91.643 219.728,91.545 219.894,91.429 219.894 C 91.312 219.894,91.217 220.132,91.217 220.423 C 91.217 220.752,91.337 220.952,91.534 220.952 C 91.709 220.952,91.852 220.852,91.852 220.728 C 91.852 220.605,91.949 220.564,92.067 220.637 C 92.185 220.710,92.218 220.873,92.140 221.000 C 92.055 221.137,92.097 221.169,92.242 221.078 C 92.613 220.850,92.536 220.211,92.071 219.653 C 91.721 219.234,91.653 219.213,91.647 219.524 M96.018 226.646 C 96.076 226.867,96.358 227.093,96.644 227.148 L 97.166 227.247 96.694 226.745 C 96.125 226.139,95.876 226.103,96.018 226.646 M299.978 229.305 C 299.717 229.498,299.651 229.669,299.788 229.795 C 299.920 229.916,300.137 229.845,300.363 229.606 C 300.813 229.129,300.524 228.902,299.978 229.305 M102.011 230.053 C 102.011 230.169,102.164 230.265,102.351 230.265 C 102.566 230.265,102.646 230.381,102.569 230.582 C 102.488 230.794,102.578 230.899,102.841 230.899 C 103.320 230.899,103.548 230.406,103.222 230.079 C 102.927 229.784,102.011 229.765,102.011 230.053 M297.684 230.034 C 297.503 230.327,297.786 230.899,298.111 230.899 C 298.280 230.899,298.349 230.768,298.278 230.582 C 298.194 230.364,298.291 230.265,298.589 230.265 C 298.828 230.265,299.081 230.169,299.153 230.053 C 299.231 229.927,298.983 229.841,298.543 229.841 C 298.136 229.841,297.749 229.928,297.684 230.034 M112.381 230.688 C 112.381 230.804,112.667 230.899,113.016 230.899 C 113.365 230.899,113.651 230.804,113.651 230.688 C 113.651 230.571,113.365 230.476,113.016 230.476 C 112.667 230.476,112.381 230.571,112.381 230.688 M122.116 230.688 C 122.116 230.804,122.593 230.899,123.175 230.899 C 123.757 230.899,124.233 230.804,124.233 230.688 C 124.233 230.571,123.757 230.476,123.175 230.476 C 122.593 230.476,122.116 230.571,122.116 230.688 M132.593 230.688 C 132.511 230.819,132.908 230.899,133.638 230.899 C 134.285 230.899,134.815 230.804,134.815 230.688 C 134.815 230.571,134.344 230.476,133.769 230.476 C 133.194 230.476,132.665 230.571,132.593 230.688 M143.175 230.688 C 143.097 230.814,143.349 230.899,143.797 230.899 C 144.211 230.899,144.550 230.804,144.550 230.688 C 144.550 230.571,144.270 230.476,143.928 230.476 C 143.585 230.476,143.247 230.571,143.175 230.688 M152.910 230.688 C 152.829 230.819,153.229 230.899,153.968 230.899 C 154.707 230.899,155.108 230.819,155.026 230.688 C 154.955 230.571,154.478 230.476,153.968 230.476 C 153.458 230.476,152.982 230.571,152.910 230.688 M173.862 230.688 C 173.785 230.814,174.037 230.899,174.485 230.899 C 174.899 230.899,175.238 230.804,175.238 230.688 C 175.238 230.571,174.958 230.476,174.616 230.476 C 174.273 230.476,173.934 230.571,173.862 230.688 M183.704 230.688 C 183.704 230.804,184.180 230.899,184.762 230.899 C 185.344 230.899,185.820 230.804,185.820 230.688 C 185.820 230.571,185.344 230.476,184.762 230.476 C 184.180 230.476,183.704 230.571,183.704 230.688 M194.180 230.688 C 194.099 230.819,194.499 230.899,195.238 230.899 C 195.977 230.899,196.378 230.819,196.296 230.688 C 196.224 230.571,195.748 230.476,195.238 230.476 C 194.728 230.476,194.252 230.571,194.180 230.688 M204.656 230.688 C 204.656 230.804,204.989 230.899,205.397 230.899 C 205.804 230.899,206.138 230.804,206.138 230.688 C 206.138 230.571,205.804 230.476,205.397 230.476 C 204.989 230.476,204.656 230.571,204.656 230.688 M214.497 230.688 C 214.416 230.819,214.817 230.899,215.556 230.899 C 216.294 230.899,216.695 230.819,216.614 230.688 C 216.542 230.571,216.066 230.476,215.556 230.476 C 215.045 230.476,214.569 230.571,214.497 230.688 M224.974 230.688 C 224.974 230.804,225.450 230.899,226.032 230.899 C 226.614 230.899,227.090 230.804,227.090 230.688 C 227.090 230.571,226.614 230.476,226.032 230.476 C 225.450 230.476,224.974 230.571,224.974 230.688 M245.291 230.688 C 245.291 230.804,245.767 230.899,246.349 230.899 C 246.931 230.899,247.407 230.804,247.407 230.688 C 247.407 230.571,246.931 230.476,246.349 230.476 C 245.767 230.476,245.291 230.571,245.291 230.688 M255.767 230.688 C 255.686 230.819,256.087 230.899,256.825 230.899 C 257.564 230.899,257.965 230.819,257.884 230.688 C 257.812 230.571,257.335 230.476,256.825 230.476 C 256.315 230.476,255.839 230.571,255.767 230.688 M266.243 230.688 C 266.243 230.804,266.720 230.899,267.302 230.899 C 267.884 230.899,268.360 230.804,268.360 230.688 C 268.360 230.571,267.884 230.476,267.302 230.476 C 266.720 230.476,266.243 230.571,266.243 230.688 M276.085 230.688 C 276.004 230.818,276.365 230.899,277.025 230.899 C 277.613 230.899,278.095 230.804,278.095 230.688 C 278.095 230.571,277.672 230.476,277.155 230.476 C 276.638 230.476,276.157 230.571,276.085 230.688 M286.561 230.688 C 286.561 230.804,287.037 230.899,287.619 230.899 C 288.201 230.899,288.677 230.804,288.677 230.688 C 288.677 230.571,288.201 230.476,287.619 230.476 C 287.037 230.476,286.561 230.571,286.561 230.688 M170.951 231.659 C 170.524 232.086,171.028 233.710,171.528 233.518 C 171.706 233.450,171.852 233.293,171.852 233.170 C 171.852 233.046,171.781 233.016,171.694 233.103 C 171.608 233.189,171.441 232.865,171.323 232.381 C 171.205 231.897,171.038 231.572,170.951 231.659 M161.005 232.539 C 160.791 232.588,160.636 232.817,160.638 233.084 C 160.641 233.450,160.682 233.481,160.838 233.235 C 161.058 232.886,161.481 233.734,161.481 234.524 C 161.481 234.756,161.565 234.894,161.668 234.831 C 162.204 234.499,161.599 232.403,161.005 232.539 M237.884 237.672 C 237.884 238.114,237.974 238.312,238.148 238.254 C 238.294 238.205,238.413 237.944,238.413 237.672 C 238.413 237.400,238.294 237.138,238.148 237.090 C 237.974 237.032,237.884 237.230,237.884 237.672 M236.815 238.426 C 236.566 238.725,236.572 238.811,236.852 239.018 C 237.032 239.151,237.236 239.402,237.303 239.577 C 237.372 239.754,237.433 239.613,237.440 239.259 C 237.460 238.344,237.186 237.979,236.815 238.426 M174.688 239.870 C 174.479 240.322,174.506 240.370,174.964 240.370 C 175.356 240.370,175.458 240.271,175.408 239.937 C 175.316 239.318,174.960 239.285,174.688 239.870 M235.885 240.692 C 235.707 240.964,235.500 241.493,235.425 241.867 C 235.351 242.242,235.206 242.600,235.105 242.662 C 234.754 242.879,234.922 243.134,235.344 243.024 C 235.662 242.941,235.767 242.736,235.767 242.198 C 235.767 241.428,236.290 241.171,236.468 241.852 C 236.521 242.056,236.576 241.823,236.589 241.335 C 236.619 240.276,236.331 240.013,235.885 240.692 M163.522 241.504 C 163.317 241.743,163.179 242.090,163.215 242.274 C 163.303 242.725,163.810 242.876,163.810 242.451 C 163.810 241.935,164.403 242.055,164.507 242.593 C 164.577 242.955,164.605 242.912,164.627 242.414 C 164.670 241.443,164.027 240.914,163.522 241.504 M222.342 243.220 C 222.431 243.500,222.349 243.598,222.025 243.598 C 221.784 243.598,221.587 243.693,221.587 243.810 C 221.587 244.275,222.437 243.993,222.728 243.432 C 223.010 242.886,223.003 242.842,222.628 242.842 C 222.335 242.842,222.256 242.947,222.342 243.220 M234.308 244.219 C 234.156 244.313,234.066 244.524,234.106 244.688 C 234.165 244.927,234.251 244.914,234.543 244.617 C 234.931 244.222,234.763 243.938,234.308 244.219 M179.400 245.432 C 179.109 245.723,179.275 246.138,179.683 246.138 C 179.915 246.138,180.106 246.275,180.106 246.443 C 180.106 246.855,180.380 246.996,180.745 246.770 C 180.988 246.620,180.925 246.461,180.417 245.943 C 179.754 245.268,179.628 245.204,179.400 245.432 M166.772 246.743 C 166.772 247.007,166.678 247.162,166.561 247.090 C 166.444 247.018,166.349 247.155,166.349 247.395 C 166.349 248.002,166.655 247.939,166.960 247.269 C 167.139 246.878,167.149 246.641,166.994 246.486 C 166.840 246.332,166.772 246.409,166.772 246.743 M168.089 248.333 C 168.113 248.622,168.207 248.812,168.299 248.755 C 168.534 248.610,168.506 248.092,168.255 247.937 C 168.134 247.862,168.064 248.030,168.089 248.333 M184.275 249.234 C 183.978 249.532,184.140 249.735,184.674 249.735 C 185.017 249.735,185.188 249.637,185.132 249.471 C 185.030 249.165,184.493 249.017,184.275 249.234 M172.063 253.114 C 172.063 253.235,172.200 253.333,172.366 253.333 C 172.533 253.333,172.710 253.548,172.761 253.810 L 172.852 254.286 172.881 253.817 C 172.898 253.544,172.734 253.254,172.487 253.122 C 172.200 252.968,172.063 252.966,172.063 253.114 M191.746 253.680 C 191.746 254.096,192.342 254.587,192.857 254.596 C 193.439 254.607,193.290 254.241,192.646 254.080 C 192.086 253.939,192.080 253.922,192.475 253.634 C 192.866 253.347,192.859 253.333,192.316 253.333 C 191.929 253.333,191.746 253.445,191.746 253.680 M201.693 254.369 C 202.283 254.534,201.871 254.815,201.041 254.815 C 200.818 254.815,200.635 254.910,200.635 255.026 C 200.635 255.292,203.317 255.310,203.480 255.046 C 203.809 254.514,203.323 254.180,202.252 254.201 C 201.453 254.216,201.304 254.261,201.693 254.369 M177.280 257.666 C 177.190 257.902,177.297 257.989,177.679 257.989 C 177.966 257.989,178.201 258.085,178.201 258.201 C 178.201 258.317,178.011 258.413,177.778 258.413 C 177.145 258.413,177.226 259.221,177.884 259.471 C 178.175 259.582,178.413 259.777,178.413 259.904 C 178.413 260.032,178.579 260.105,178.783 260.066 C 179.319 259.962,179.238 259.377,178.677 259.297 C 178.092 259.214,178.057 258.876,178.612 258.670 C 179.002 258.526,179.004 258.494,178.665 258.065 C 178.185 257.457,177.443 257.243,177.280 257.666 M216.623 260.938 C 216.478 261.172,216.812 261.424,217.008 261.229 C 217.209 261.028,217.171 260.741,216.944 260.741 C 216.834 260.741,216.690 260.829,216.623 260.938 M215.046 261.571 C 214.573 261.870,215.155 263.112,215.728 263.027 C 216.326 262.938,216.437 262.431,215.889 262.288 C 215.563 262.203,215.473 262.060,215.564 261.773 C 215.700 261.343,215.518 261.272,215.046 261.571 M185.340 262.028 C 185.428 262.364,185.498 262.402,185.635 262.187 C 185.895 261.776,185.860 261.587,185.522 261.587 C 185.325 261.587,185.264 261.736,185.340 262.028 M192.880 264.233 C 192.915 264.856,193.934 265.009,194.158 264.425 C 194.348 263.930,194.125 263.704,193.449 263.704 C 192.942 263.704,192.854 263.786,192.880 264.233 M201.905 264.297 C 199.770 264.396,199.820 264.762,201.968 264.762 C 202.981 264.762,203.810 264.677,203.810 264.573 C 203.810 264.285,203.408 264.227,201.905 264.297 M200.000 265.608 C 200.000 265.725,200.190 265.820,200.423 265.820 C 200.656 265.820,200.847 265.725,200.847 265.608 C 200.847 265.492,200.656 265.397,200.423 265.397 C 200.190 265.397,200.000 265.492,200.000 265.608 " stroke="none" fill="#fcfcfc" fill-rule="evenodd"></path><path id="path1" d="" stroke="none" fill="#100fcfc" fill-rule="evenodd"></path><path id="path2" d="" stroke="none" fill="#100fcfc" fill-rule="evenodd"></path><path id="path3" d="" stroke="none" fill="#100fcfc" fill-rule="evenodd"></path><path id="path4" d="" stroke="none" fill="#100fcfc" fill-rule="evenodd"></path></g></svg>