<?xml version="1.0" encoding="utf-8"?>
<!-- Svg Vector Icons : http://www.onlinewebfonts.com/icon -->
<!DOCTYPE svg PUBLIC "-//W3C//DTD SVG 1.1//EN" "http://www.w3.org/Graphics/SVG/1.1/DTD/svg11.dtd">
<svg version="1.1" xmlns="http://www.w3.org/2000/svg" xmlns:xlink="http://www.w3.org/1999/xlink" x="0px" y="0px" viewBox="0 0 1000 1000" enable-background="new 0 0 1000 1000" xml:space="preserve">
<metadata> Svg Vector Icons : http://www.onlinewebfonts.com/icon </metadata>
<g><g transform="translate(0.000000,511.000000) scale(0.100000,-0.100000)"><path fill="white" d="M7368.8,4957.6c-186.5-100.3-197.7-156-197.7-944v-704.5h-712.8c-668.3,0-721.2-2.8-804.8-55.7c-130.9-80.8-181-206.1-181-451.1c0-239.5,52.9-367.6,192.1-459.5c91.9-61.3,114.2-64,799.2-64h707.3v-707.3c0-685,2.8-707.3,64-799.2c91.9-139.2,220-192.1,459.5-192.1c236.7,0,381.5,61.3,459.5,189.4c41.8,75.2,47.3,167.1,47.3,796.4v712.9h704.5c626.5,0,712.9,5.6,796.4,50.1c147.6,78,197.7,200.5,197.7,473.4c0,267.3-39,370.3-175.4,451.1c-83.5,50.1-144.8,55.7-804.8,55.7h-718.4v710.1c0,788-8.3,832.6-175.4,932.8C7903.4,5027.3,7505.2,5030,7368.8,4957.6z"/><path fill="white"  d="M1613,4679.2c-189.3-66.8-278.5-142-821.5-693.4c-643.2-648.8-718.4-813.1-685-1492.5c39-829.8,473.4-1913,1202.9-3012.9c918.9-1386.7,2116.3-2528.4,3503-3338.7c370.4-217.2,1119.4-579.2,1425.7-685c618.2-217.2,1286.5-300.7,1687.5-211.6c334.2,72.4,490.1,186.6,1049.8,751.8c562.5,570.8,632.1,673.8,629.3,949.5c0,303.5-44.6,364.8-868.8,1186.2c-476.2,476.2-788,765.8-868.8,807.5c-175.4,91.9-465,91.9-640.5,0c-72.4-39-331.4-270.1-615.4-548.6c-270.1-267.3-504-484.5-523.5-484.5c-58.5,0-515.1,242.3-768.5,409.3c-721.2,476.2-1620.7,1375.6-2135.8,2133c-139.2,206.1-384.3,676.7-384.3,743.5c0,25,211.6,256.2,470.6,517.9c540.2,543,623.7,671.1,623.7,944c0,295.2-64,384.3-882.7,1200.2c-517.9,517.9-763,743.5-854.9,788C1972.2,4729.3,1785.7,4740.4,1613,4679.2z"/></g></g>
</svg>
