<svg height="480pt" viewBox="-31 0 479 480" width="480pt" xmlns="http://www.w3.org/2000/svg"><path d="m288.5 304h80v16h-80zm0 0"/><path d="m288.5 256h80v16h-80zm0 0"/><path d="m288.5 160h80v16h-80zm0 0"/><path d="m336.5 208h32v16h-32zm0 0"/><path d="m288.5 208h32v16h-32zm0 0"/><path d="m248.5 112h72v16h-72zm0 0"/><path d="m336.5 112h32v16h-32zm0 0"/><path d="m192.5 64h48v16h-48zm0 0"/><path d="m256.5 64h32v16h-32zm0 0"/><path d="m271.988281 181.433594c-.089843-.257813-.152343-.496094-.265625-.746094-.386718-.871094-.929687-1.664062-1.597656-2.34375l-64-64c-.679688-.671875-1.476562-1.214844-2.351562-1.601562-.238282-.097657-.476563-.1875-.722657-.261719-.679687-.234375-1.390625-.375-2.109375-.417969-.160156 0-.3125-.09375-.472656-.09375h-191.96875c-4.417969 0-8 3.582031-8 8v352.03125c0 4.417969 3.582031 8 8 8h256c4.417969 0 8-3.582031 8-8v-288c0-.167969-.089844-.320312-.097656-.496094-.042969-.707031-.183594-1.402344-.414063-2.070312zm-63.488281-42.121094 36.6875 36.6875h-36.6875zm48 324.6875h-240v-336h176v56c0 4.417969 3.582031 8 8 8h56zm0 0"/><path d="m48.5 368h64v16h-64zm0 0"/><path d="m48.5 416h176v16h-176zm0 0"/><path d="m128.5 368h96v16h-96zm0 0"/><path d="m48.5 272h80v16h-80zm0 0"/><path d="m144.5 272h80v16h-80zm0 0"/><path d="m192.5 320h32v16h-32zm0 0"/><path d="m48.5 320h128v16h-128zm0 0"/><path d="m48.5 224h128v16h-128zm0 0"/><path d="m192.5 224h32v16h-32zm0 0"/><path d="m48.5 176h48v16h-48zm0 0"/><path d="m112.5 176h32v16h-32zm0 0"/><path d="m415.988281 69.433594c-.089843-.257813-.152343-.496094-.265625-.746094-.386718-.871094-.929687-1.664062-1.597656-2.34375l-64-64c-.679688-.667969-1.472656-1.210938-2.34375-1.601562-.246094-.097657-.492188-.1875-.746094-.261719-.671875-.230469-1.371094-.371094-2.078125-.417969-.136719.0273438-.289062-.0625-.457031-.0625h-192c-4.417969 0-8 3.582031-8 8v88h16v-80h176v56c0 4.417969 3.582031 8 8 8h56v272h-112v16h120c4.417969 0 8-3.582031 8-8v-288c0-.167969-.089844-.320312-.097656-.496094-.042969-.707031-.183594-1.402344-.414063-2.070312zm-63.488281-5.433594v-36.6875l36.6875 36.6875zm0 0"/></svg>