<?xml version="1.0" encoding="UTF-8"?>
<svg xmlns="http://www.w3.org/2000/svg" xmlns:xlink="http://www.w3.org/1999/xlink" viewBox="0 0 48 48" version="1.1" width="50px" height="50px">
<g id="surface1">
<path style=" fill:#64B5F6;" d="M 40 13 L 25 13 L 25 35 L 40 35 C 41.105469 35 42 34.105469 42 33 L 42 15 C 42 13.894531 41.105469 13 40 13 Z "/>
<path style=" fill:#FFFFFF;" d="M 39 18.242188 L 39 20.683594 C 39 20.824219 39 21.0625 38.859375 21.183594 L 37.039063 23.003906 C 36.898438 23.144531 36.757813 23.144531 36.617188 23.003906 L 35.921875 22.441406 C 35.777344 22.300781 35.777344 22.160156 35.921875 22.023438 L 36.757813 21.183594 L 36.757813 18.242188 L 34.238281 18.242188 C 32 19.921875 30.179688 23.003906 29.617188 22.441406 C 28.921875 21.882813 33.261719 16.140625 33.816406 16.003906 L 38.578125 16.003906 C 38.859375 16.003906 39 16.144531 39 16.421875 Z "/>
<path style=" fill:#FFFFFF;" d="M 36.761719 32 L 34.316406 32 C 34.175781 32 33.941406 32 33.820313 31.859375 L 32 30.039063 C 31.859375 29.898438 31.859375 29.757813 32 29.617188 L 32.558594 28.917969 C 32.699219 28.777344 32.839844 28.777344 32.980469 28.917969 L 33.820313 29.757813 L 36.761719 29.757813 L 36.761719 27.238281 C 35.078125 25 32 23.179688 32.558594 22.617188 C 33.121094 21.917969 38.859375 26.261719 39 26.816406 L 39 31.578125 C 39 31.859375 38.859375 32 38.578125 32 Z "/>
<path style=" fill:#FFFFFF;" d="M 23.542969 29.761719 L 23.542969 27.316406 C 23.542969 27.175781 23.542969 26.941406 23.683594 26.820313 L 25.503906 25 C 25.644531 24.859375 25.785156 24.859375 25.925781 25 L 26.621094 25.558594 C 26.765625 25.699219 26.765625 25.839844 26.621094 25.980469 L 25.785156 26.820313 L 25.785156 29.761719 L 28.304688 29.761719 C 30.542969 28.078125 32.363281 25 32.925781 25.558594 C 33.621094 26.121094 29.28125 31.859375 28.726563 32 L 23.964844 32 C 23.683594 32 23.542969 31.859375 23.542969 31.578125 Z "/>
<path style=" fill:#FFFFFF;" d="M 25.78125 16.003906 L 28.226563 16.003906 C 28.367188 16.003906 28.601563 16.003906 28.722656 16.144531 L 30.542969 17.964844 C 30.683594 18.105469 30.683594 18.242188 30.542969 18.382813 L 29.980469 19.085938 C 29.84375 19.226563 29.703125 19.226563 29.5625 19.085938 L 28.722656 18.242188 L 25.78125 18.242188 L 25.78125 20.765625 C 27.460938 23.003906 30.542969 24.824219 29.980469 25.382813 C 29.421875 26.085938 23.683594 21.742188 23.542969 21.183594 L 23.542969 16.425781 C 23.542969 16.144531 23.683594 16.003906 23.964844 16.003906 Z "/>
<path style=" fill:#1E88E5;" d="M 27 42 L 6 38 L 6 10 L 27 6 Z "/>
<path style=" fill:#FFFFFF;" d="M 20 32.8125 L 12 32.113281 L 12 16.808594 L 19.71875 15.972656 L 19.71875 19.054688 L 14.949219 19.339844 L 14.949219 22.851563 L 19.300781 22.710938 L 19.300781 25.792969 L 14.949219 25.792969 L 14.949219 29.449219 L 20 29.726563 Z "/>
</g>
</svg>
