<?xml version="1.0" standalone="no"?>
<!DOCTYPE svg PUBLIC "-//W3C//DTD SVG 20010904//EN"
 "http://www.w3.org/TR/2001/REC-SVG-20010904/DTD/svg10.dtd">
<svg version="1.0" xmlns="http://www.w3.org/2000/svg"
 width="200.000000pt" height="200.000000pt" viewBox="0 0 200.000000 200.000000"
 preserveAspectRatio="xMidYMid meet">
<metadata>
Created by potrace 1.16, written by Peter Selinger 2001-2019
</metadata>
<g transform="translate(0.000000,200.000000) scale(0.100000,-0.100000)"
fill="#023d67" stroke="none">
<path d="M199 1947 c-18 -12 -44 -38 -56 -56 l-23 -34 0 -710 0 -709 22 -40
c12 -21 38 -49 58 -61 34 -21 44 -22 394 -25 l359 -3 -17 26 c-9 14 -23 36
-32 50 l-16 25 -293 0 c-297 0 -336 4 -361 38 -11 14 -13 154 -14 693 0 669 0
677 21 703 l20 26 289 0 289 0 3 -232 c3 -261 7 -277 78 -321 32 -20 50 -22
233 -25 l197 -4 0 -113 c0 -125 -5 -117 73 -131 l37 -6 0 208 0 209 -228 257
-227 257 -386 0 c-386 1 -386 1 -420 -22z"/>
<path d="M370 1490 l0 -40 205 0 205 0 0 40 0 40 -205 0 -205 0 0 -40z"/>
<path d="M370 1115 l0 -35 415 0 415 0 0 35 0 35 -415 0 -415 0 0 -35z"/>
<path d="M1220 996 c-256 -57 -392 -343 -275 -578 34 -69 114 -149 179 -181
116 -57 241 -58 360 -4 l54 25 113 -114 c105 -105 117 -114 151 -114 50 0 78
28 78 77 0 33 -11 47 -114 152 l-113 116 24 52 c112 242 -33 524 -296 573 -66
12 -91 12 -161 -4z m210 -136 c61 -30 106 -75 138 -135 38 -72 38 -178 0 -251
-52 -100 -156 -164 -264 -164 -98 0 -209 71 -256 165 -29 57 -35 149 -13 216
24 73 112 161 181 183 65 21 157 15 214 -14z"/>
<path d="M370 745 l0 -35 250 0 c193 0 250 3 250 13 0 6 3 22 6 35 l6 22 -256
0 -256 0 0 -35z"/>
</g>
</svg>
