<?xml version="1.0" encoding="iso-8859-1"?>
<!-- Generator: Adobe Illustrator 19.0.0, SVG Export Plug-In . SVG Version: 6.00 Build 0)  -->
<svg version="1.1" id="Capa_1" xmlns="http://www.w3.org/2000/svg" xmlns:xlink="http://www.w3.org/1999/xlink" x="0px" y="0px"
	 viewBox="0 0 468.293 468.293" style="enable-background:new 0 0 468.293 468.293;" xml:space="preserve">
<path style="fill:#3A556A;" d="M468.293,101.79H0V45.595C0,35.25,8.386,26.863,18.732,26.863h430.829
	c10.345,0,18.732,8.386,18.732,18.732V101.79z"/>
<path style="fill:#EBF0F3;" d="M449.561,441.429H18.732C8.386,441.429,0,433.043,0,422.698V102.792h468.293v319.906
	C468.293,433.043,459.906,441.429,449.561,441.429z"/>
<circle style="fill:#FCD462;" cx="53.136" cy="64.325" r="16.965"/>
<circle style="fill:#E1E6E9;" cx="114.238" cy="64.325" r="16.965"/>
<circle style="fill:#27A2DB;" cx="175.323" cy="64.325" r="16.965"/>
<rect x="36.19" y="152.014" style="fill:#E56353;" width="99.902" height="62.439"/>
<rect x="36.19" y="241.202" style="fill:#27A2DB;" width="99.902" height="62.439"/>
<rect x="36.19" y="331.052" style="fill:#44C4A1;" width="99.902" height="61.165"/>
<g>
	<rect x="172.831" y="154.037" style="fill:#D5D6DB;" width="260.296" height="18.732"/>
	<rect x="172.831" y="195.721" style="fill:#D5D6DB;" width="260.296" height="18.732"/>
	<rect x="172.831" y="243.2" style="fill:#D5D6DB;" width="260.296" height="18.732"/>
	<rect x="172.831" y="284.909" style="fill:#D5D6DB;" width="260.296" height="18.732"/>
	<rect x="172.831" y="331.782" style="fill:#D5D6DB;" width="260.296" height="18.732"/>
	<rect x="172.831" y="373.448" style="fill:#D5D6DB;" width="260.296" height="18.732"/>
</g>
<rect x="219.423" y="51.837" style="fill:#E1E6E9;" width="213.729" height="24.976"/>
<g>
</g>
<g>
</g>
<g>
</g>
<g>
</g>
<g>
</g>
<g>
</g>
<g>
</g>
<g>
</g>
<g>
</g>
<g>
</g>
<g>
</g>
<g>
</g>
<g>
</g>
<g>
</g>
<g>
</g>
</svg>
