<svg xmlns="http://www.w3.org/2000/svg" viewBox="0 0 30 30">    <path fill="#cc0000" d="M 22.980469 3.9902344 A 1.0001 1.0001 0 0 0 22.869141 4 L 18.050781 4 A 1.0001 1.0001 0 1 0 18.050781 6 L 20.585938 6 L 15 11.585938 L 8.7070312 5.2929688 A 1.0001 1.0001 0 1 0 7.2929688 6.7070312 L 14.292969 13.707031 A 1.0001 1.0001 0 0 0 15.707031 13.707031 L 22 7.4140625 L 22 9.9492188 A 1.0001 1.0001 0 1 0 24 9.9492188 L 24 5.1269531 A 1.0001 1.0001 0 0 0 22.980469 3.9902344 z M 15.001953 16 C 3.7339531 16 2 19.322359 2 22.318359 C 2 23.278359 2.249625 23.943813 2.515625 24.382812 C 2.789625 24.831813 3.3162187 25.047062 3.8242188 24.914062 C 5.0932188 24.582063 7.8306094 23.866156 9.0996094 23.535156 C 9.5166094 23.426156 9.8354063 23.100594 9.9414062 22.683594 L 10.476562 20.568359 C 10.596562 20.095359 10.988656 19.7465 11.472656 19.6875 C 12.309656 19.5845 13.684953 19.445312 15.001953 19.445312 C 16.318953 19.445312 17.691297 19.5845 18.529297 19.6875 C 19.013297 19.7475 19.405391 20.095359 19.525391 20.568359 L 20.060547 22.683594 C 20.166547 23.101594 20.48925 23.427156 20.90625 23.535156 L 26.171875 24.912109 C 26.681875 25.045109 27.213328 24.828906 27.486328 24.378906 C 27.751328 23.941906 28 23.275359 28 22.318359 C 28 19.322359 26.269953 16 15.001953 16 z"></path></svg>