<?xml version="1.0" encoding="iso-8859-1"?>
<!-- Generator: Adobe Illustrator 19.0.0, SVG Export Plug-In . SVG Version: 6.00 Build 0)  -->
<svg version="1.1" id="Capa_1" xmlns="http://www.w3.org/2000/svg" xmlns:xlink="http://www.w3.org/1999/xlink" x="0px" y="0px"
	 viewBox="0 0 511.996 511.996" style="enable-background:new 0 0 511.996 511.996;" xml:space="preserve">
<path style="fill:#CFD8DC;" d="M416.01,0.005H181.343c-5.891,0-10.667,4.776-10.667,10.667v117.333H53.343
	c-5.891,0-10.667,4.776-10.667,10.667v320c0,5.891,4.776,10.667,10.667,10.667H416.01c5.891,0,10.667-4.776,10.667-10.667v-448
	C426.677,4.78,421.901,0.005,416.01,0.005z"/>
<path style="fill:#B0BEC5;" d="M185.418,0.815c-3.985-1.654-8.574-0.745-11.627,2.304l-128,128
	c-4.171,4.16-4.179,10.914-0.019,15.085c2.006,2.011,4.731,3.139,7.571,3.134h128c5.891,0,10.667-4.776,10.667-10.667v-128
	C192.009,6.355,189.407,2.464,185.418,0.815z"/>
<path style="fill:#F44336;" d="M443.466,417.946l-106.667-74.667c-4.824-3.381-11.476-2.212-14.857,2.612
	c-1.256,1.791-1.93,3.926-1.932,6.114v149.333c0.005,5.891,4.785,10.663,10.676,10.658c2.188-0.002,4.322-0.676,6.114-1.932
	l106.667-74.667c4.819-3.389,5.978-10.042,2.59-14.861C445.348,419.53,444.472,418.653,443.466,417.946L443.466,417.946z"/>
<g>
	<path style="fill:#455A64;" d="M224.01,320.005c-5.891,0-10.667-4.776-10.667-10.667v-92.779l-23.125,34.688
		c-3.676,4.901-10.629,5.895-15.531,2.219c-0.841-0.631-1.588-1.378-2.219-2.219l-23.125-34.688v92.779
		c0,5.891-4.776,10.667-10.667,10.667c-5.891,0-10.667-4.776-10.667-10.667v-128c0.005-5.891,4.784-10.663,10.675-10.658
		c3.563,0.003,6.89,1.785,8.866,4.749l33.792,50.709l33.792-50.688c3.268-4.901,9.891-6.225,14.792-2.957
		c2.958,1.973,4.739,5.29,4.749,8.845v128C234.677,315.229,229.901,320.005,224.01,320.005z"/>
	<path style="fill:#455A64;" d="M309.343,320.005c-29.455,0-53.333-23.878-53.333-53.333v-42.667
		c0-29.455,23.878-53.333,53.333-53.333c29.455,0,53.333,23.878,53.333,53.333v42.667
		C362.677,296.127,338.799,320.005,309.343,320.005z M309.343,192.005c-17.673,0-32,14.327-32,32v42.667c0,17.673,14.327,32,32,32
		c17.673,0,32-14.327,32-32v-42.667C341.343,206.332,327.016,192.005,309.343,192.005z"/>
	<path style="fill:#455A64;" d="M416.01,320.005c-4.597,0.006-8.681-2.934-10.133-7.296l-42.667-128
		c-1.862-5.591,1.161-11.632,6.752-13.493s11.632,1.161,13.493,6.752l32.555,97.643l32.533-97.643
		c1.862-5.591,7.903-8.614,13.493-6.752c5.591,1.862,8.614,7.903,6.752,13.493l-42.667,128
		C424.672,317.063,420.599,320.001,416.01,320.005z"/>
</g>
<g>
</g>
<g>
</g>
<g>
</g>
<g>
</g>
<g>
</g>
<g>
</g>
<g>
</g>
<g>
</g>
<g>
</g>
<g>
</g>
<g>
</g>
<g>
</g>
<g>
</g>
<g>
</g>
<g>
</g>
</svg>
