<?xml version="1.0" encoding="iso-8859-1"?>
<!-- Generator: Adobe Illustrator 21.0.0, SVG Export Plug-In . SVG Version: 6.00 Build 0)  -->
<svg version="1.1" id="Capa_1" xmlns="http://www.w3.org/2000/svg" xmlns:xlink="http://www.w3.org/1999/xlink" x="0px" y="0px"
	 viewBox="0 0 472 472" style="enable-background:new 0 0 472 472;" xml:space="preserve">
<g>
	<g>
		<path d="M444,48H276V24c0-13.255-10.745-24-24-24H28C14.745,0,4,10.745,4,24v176c-0.014,5.083,0.312,10.161,0.976,15.2
			c4.016,27.778,26.368,49.29,54.28,52.24l17.696,1.968c-4.373,7.929-7.199,16.616-8.328,25.6h22.648l15.352-15.36
			c2.739-2.747,6.932-3.428,10.4-1.688l34.104,17.048h60.256c-4.875-39.376-40.746-67.344-80.122-62.47
			c-18.354,2.272-35.126,11.536-46.822,25.862c-8.112-7.416-16.344-16.264-16.256-22.328C68.52,215.2,88.8,200,109.72,200H252
			c13.255,0,24-10.745,24-24v-8h104c26.51,0,48,21.49,48,48c-0.001,10.47-2.846,20.742-8.232,29.72l-10.536,17.6
			C398.794,248.711,381.955,240.029,364,240h-87.432c3.977,27.554,27.592,48.003,55.432,48h87.264c-0.806-5.55-2.452-10.945-4.88-16
			h1.528c20.021,0.017,37.967-12.345,45.088-31.056c4.233-10.49,6.602-21.639,7-32.944V72C468,58.745,457.255,48,444,48z M36,32h168
			v16H36V32z M52,112H36V96h16V112z M36,80V64h48v16H36z M132,112H68V96h64V112z M220,112h-72V96h72V112z M220,80H100V64h120V80z
			 M300,88h16v16h-16V88z M356,136h-56v-16h56V136z M444,136h-72v-16h72V136z M444,104H332V88h112V104z" fill="#fff"/>
	</g>
</g>
<g>
	<g>
		<path d="M412.003,399.997c-1.338,0-2.675,0.084-4.003,0.251c-13.069,2.213-25.457-6.587-27.67-19.656
			c-0.257-1.517-0.367-3.054-0.33-4.592v-4.184c19.49-6.919,35.078-21.861,42.816-41.04c1.544-4.088-0.518-8.653-4.606-10.197
			c-0.201-0.076-0.404-0.143-0.61-0.203c1.451-5.323,2.214-10.811,2.272-16.328H332c-13.81,0.003-27.326-3.996-38.912-11.512
			c-0.72,3.795-1.084,7.649-1.088,11.512c0.052,5.531,0.829,11.031,2.312,16.36c-4.186,1.255-6.562,5.665-5.307,9.851
			c0.056,0.185,0.118,0.369,0.187,0.549c7.742,19.167,23.327,34.096,42.808,41.008V376c0.323,13.251-10.157,24.255-23.408,24.578
			c-1.538,0.037-3.075-0.073-4.592-0.33c-17.534-2.209-33.54,10.214-35.749,27.749C268.084,429.325,268,430.662,268,432v40h176v-40
			C444.002,414.327,429.676,399.999,412.003,399.997z" fill="#fff"/>
	</g>
</g>
<g>
	<g>
		<path d="M196,392c-13.36-0.023-25.293-8.364-29.904-20.904c24.577-9.634,41.939-31.91,45.28-58.096h-62.4
			c-1.389-0.004-2.758-0.33-4-0.952l-30.208-15.096l-13.4,13.448c-1.698,1.695-4.001,2.645-6.4,2.64h-26.4
			c3.341,26.186,20.703,48.462,45.28,58.096C109.231,383.641,97.33,391.96,84,392c-17.673,0-32,14.327-32,32v48h176v-48
			C228,406.327,213.673,392,196,392z" fill="#fff"/>
	</g>
</g>
<g>
</g>
<g>
</g>
<g>
</g>
<g>
</g>
<g>
</g>
<g>
</g>
<g>
</g>
<g>
</g>
<g>
</g>
<g>
</g>
<g>
</g>
<g>
</g>
<g>
</g>
<g>
</g>
<g>
</g>
</svg>
