<svg aria-hidden="true" focusable="false" data-prefix="fad" data-icon="presentation" role="img" xmlns="http://www.w3.org/2000/svg" viewBox="0 0 576 512" class="svg-inline--fa fa-presentation fa-w-18 fa-5x"><g class="fa-group"><path fill="#dadee2" d="M480 64h64v256a32 32 0 0 1-32 32H64a32 32 0 0 1-32-32V64h64v224h384z" class="fa-secondary"></path><path fill="#adb5bd" d="M560 0H16A16 16 0 0 0 0 16v32a16 16 0 0 0 16 16h544a16 16 0 0 0 16-16V16a16 16 0 0 0-16-16zM320 386.75V352h-64v34.75l-75.31 75.31a16 16 0 0 0 0 22.63l22.62 22.62a16 16 0 0 0 22.63 0L288 445.25l62.06 62.06a16 16 0 0 0 22.63 0l22.62-22.62a16 16 0 0 0 0-22.63z" class="fa-primary"></path></g></svg>