<svg xmlns="http://www.w3.org/2000/svg" xmlns:xlink="http://www.w3.org/1999/xlink" version="1.1" style="" xml:space="preserve" width="174.239" height="174.239"><rect id="backgroundrect" width="100%" height="100%" x="0" y="0" fill="none" stroke="none"/>
















<g class="currentLayer" style=""><title>Layer 1</title><g id="svg_1" class="" fill="#ff02ff" fill-opacity="1">
	<path fill="#ff02ff" d="M73.799,107.802c-1.144,0.89-2.511,1.335-3.909,1.335c-1.367,0-2.765-0.445-3.909-1.335L25.617,76.37   c-2.765-2.162-3.274-6.134-1.112-8.899c2.161-2.797,6.166-3.274,8.931-1.113l36.454,28.35l32.831-25.521   c-5.625-7.882-8.454-17.163-8.454-26.443H19.07C8.549,42.743,0,51.325,0,61.813v85.018c0,10.488,8.549,19.07,19.07,19.07h101.704   c10.488,0,19.069-8.581,19.069-19.07V88.288c-10.012,0-20.055-3.274-28.318-9.853L73.799,107.802z" id="svg_2" fill-opacity="1"/>
	<path fill="#ff02ff" d="M164.156,18.398c-13.444-13.412-35.215-13.412-48.659,0c-6.738,6.738-10.075,15.542-10.075,24.346   c0,8.804,3.337,17.607,10.075,24.346c6.738,6.706,15.51,10.043,24.345,10.043c8.772,0,17.607-3.337,24.314-10.043   C177.6,53.645,177.6,31.842,164.156,18.398z" id="svg_3" fill-opacity="1"/>
</g><g id="svg_4">
</g><g id="svg_5">
</g><g id="svg_6">
</g><g id="svg_7">
</g><g id="svg_8">
</g><g id="svg_9">
</g><g id="svg_10">
</g><g id="svg_11">
</g><g id="svg_12">
</g><g id="svg_13">
</g><g id="svg_14">
</g><g id="svg_15">
</g><g id="svg_16">
</g><g id="svg_17">
</g><g id="svg_18">
</g></g></svg>