<svg xmlns="http://www.w3.org/2000/svg" xmlns:xlink="http://www.w3.org/1999/xlink" width="24" height="24" version="1.1"><rect id="backgroundrect" width="100%" height="100%" x="0" y="0" fill="none" stroke="none"/>
    <!-- Generator: Sketch 51.2 (57519) - http://www.bohemiancoding.com/sketch -->
    <title>Settings</title>
    <desc>Created with Sketch.</desc>
    <defs/>
    
<g class="currentLayer" style=""><title>Layer 1</title><g id="Settings" stroke="#f7078b" stroke-width="1" fill="none" fill-rule="evenodd" stroke-linecap="round" stroke-linejoin="round" stroke-opacity="1" class="selected">
        <g id="cog" stroke="#f7078b" stroke-width="1.5" stroke-opacity="1">
            <path d="M11.03066667,5.62533333 C11.27807282,5.89996465 11.630362120000001,6.05676006 12,6.05676006 C12.36963788,6.05676006 12.72192718,5.89996465 12.96933333,5.62533333 L13.6,4.933333333 C13.970375,4.523428099 14.5586007,4.3909056930000006 15.0689689,4.602386718 C15.5793371,4.813867743 15.9014323,5.32359935 15.8733333,5.87533333 L15.826,6.80866667 C15.8074869,7.17684828 15.9455199,7.5356914800000006 16.2060019,7.79655453 C16.466484,8.05741759 16.8251251,8.19597493 17.1933333,8.178 L18.1266667,8.13066667 C18.6780281,8.10348397 19.186933099999997,8.42590285 19.397871000000002,8.93604356 C19.608809,9.44618427 19.476217,10.033855540000001 19.0666667,10.404 L18.372,11.03066667 C18.0977191,11.278412280000001 17.941189700000002,11.63072827 17.941189700000002,12.00033333 C17.941189700000002,12.3699384 18.0977191,12.72225438 18.372,12.97 L19.0666667,13.59666667 C19.4765719,13.96704167 19.609094300000002,14.5552673 19.3976133,15.0656356 C19.1861323,15.5760038 18.676400700000002,15.898099 18.1246667,15.870000000000001 L17.1913333,15.8226667 C16.8223175,15.8036847 16.462545,15.9419878 16.2012664,16.2032664 C15.9399878,16.464545 15.8016847,16.8243175 15.8206667,17.1933333 L15.868,18.1266667 C15.8924508,18.675486499999998 15.5708365,19.1809339 15.0633347,19.3912741 C14.5558329,19.601614400000003 13.97095683,19.471873000000002 13.6,19.0666667 L12.97266667,18.3726667 C12.72504179,18.0984178 12.3728337,17.941897400000002 12.00333333,17.941897400000002 C11.63383296,17.941897400000002 11.281624879999999,18.0984178 11.033999999999999,18.3726667 L10.404,19.0666667 C10.03359899,19.4738048 9.447696409999999,19.6050137 8.93902952,19.3947368 C8.43036262,19.18446 8.10813123,18.677839300000002 8.13333333,18.128 L8.181333330000001,17.1946667 C8.20031528,16.8256509 8.06201216,16.4658783 7.80073359,16.2045997 C7.53945503,15.9433212 7.1796824699999995,15.8050181 6.81066667,15.824 L5.87733333,15.8713333 C5.325821,15.9001194 4.815873464,15.5787168 4.6039217,15.0687453 C4.391969936,14.5587738 4.523885371,13.97060337 4.933333333,13.6 L5.62733333,12.973333329999999 C5.90161423,12.72558772 6.05814366,12.37327173 6.05814366,12.00366667 C6.05814366,11.634061599999999 5.90161423,11.281745619999999 5.62733333,11.033999999999999 L4.933333333,10.404 C4.5252588,10.03383215 4.393538784,9.44730601 4.60414819,8.93819626 C4.814757596,8.429086510000001 5.32234209,8.10702897 5.87266667,8.13333333 L6.806,8.18066667 C7.17572929,8.20010546 7.53632045,8.061621670000001 7.797992450000001,7.79969537 C8.05966445,7.53776908 8.19779792,7.17704357 8.178,6.8073333300000005 L8.13333333,5.8733333299999995 C8.107526199999999,5.3232462300000005 8.429543240000001,4.816079145 8.93835927,4.605441854 C9.44717531,4.394804563 10.03344373,4.525963869 10.404,4.933333333 L11.03066667,5.62533333 z" id="Shape" stroke="#f7078b" stroke-opacity="1"/>
            <circle id="Oval" cx="12" cy="12.000666618347168" r="3" stroke="#f7078b" stroke-opacity="1"/>
        </g>
    </g></g></svg>