<?xml version="1.0"?>
<svg xmlns="http://www.w3.org/2000/svg" height="512px" viewBox="0 0 480 480" width="512px" class=""><g><path d="m240 0c-132.546875 0-240 107.453125-240 240s107.453125 240 240 240 240-107.453125 240-240c-.148438-132.484375-107.515625-239.851562-240-240zm0 464c-123.710938 0-224-100.289062-224-224s100.289062-224 224-224 224 100.289062 224 224c-.140625 123.652344-100.347656 223.859375-224 224zm0 0" data-original="#000000" class="active-path" data-old_color="#F7F6F6" fill="#FBFAFA"/><path d="m344 104h-208c-4.417969 0-8 3.582031-8 8v256c0 4.417969 3.582031 8 8 8h208c4.417969 0 8-3.582031 8-8v-256c0-4.417969-3.582031-8-8-8zm-8 256h-192v-240h192zm0 0" data-original="#000000" class="active-path" data-old_color="#F7F6F6" fill="#FBFAFA"/><path d="m232 224c1.9375 0 3.8125-.699219 5.273438-1.976562l64-56-10.546876-12.046876-58.398437 51.078126-26.703125-26.710938-11.3125 11.3125 32 32c1.507812 1.507812 3.554688 2.351562 5.6875 2.34375zm0 0" data-original="#000000" class="active-path" data-old_color="#F7F6F6" fill="#FBFAFA"/><path d="m184 264h112v16h-112zm0 0" data-original="#000000" class="active-path" data-old_color="#F7F6F6" fill="#FBFAFA"/><path d="m184 304h112v16h-112zm0 0" data-original="#000000" class="active-path" data-old_color="#F7F6F6" fill="#FBFAFA"/></g> </svg>
