<?xml version="1.0"?>
<svg xmlns="http://www.w3.org/2000/svg" xmlns:xlink="http://www.w3.org/1999/xlink" version="1.1" id="Layer_1" x="0px" y="0px" viewBox="0 0 473.931 473.931" style="enable-background:new 0 0 473.931 473.931;" xml:space="preserve" width="512px" height="512px" class=""><g><circle style="fill:#6B6666" cx="236.966" cy="236.966" r="236.966" data-original="#357180" class="active-path" data-old_color="#696464"/><path style="fill:#FBFBFA" d="M351.426,368.286c0,16.127-13.07,29.201-29.193,29.201H151.934  c-16.127,0-29.197-13.074-29.197-29.201V130.677c0-16.127,13.07-29.201,29.197-29.201h170.299c16.123,0,29.193,13.074,29.193,29.201  V368.286z" data-original="#F6F6E7" class="" data-old_color="#FBFBF9"/><g>
	
		<rect x="157.6" y="187.877" transform="matrix(-1 0.0012 -0.0012 -1 424.2418 386.5903)" style="fill:#B5B6B6;" width="108.81" height="11.091" data-original="#B5B6B6" class=""/>
	
		<rect x="155.754" y="252.69" transform="matrix(-1 0.0012 -0.0012 -1 420.6286 516.2152)" style="fill:#B5B6B6;" width="108.81" height="11.087" data-original="#B5B6B6" class=""/>
	
		<rect x="154.67" y="315.927" transform="matrix(-1 0.0012 -0.0012 -1 418.5363 642.6868)" style="fill:#B5B6B6;" width="108.81" height="11.083" data-original="#B5B6B6" class=""/>
</g><g>
	<path style="fill:#CDCDCE;" d="M317.114,198.983c0.041,5.549-4.445,10.065-9.991,10.092l-13.388,0.067   c-5.545,0.03-10.073-4.445-10.103-9.998l-0.064-13.388c-0.022-5.545,4.46-10.065,9.998-10.092l13.396-0.067   c5.538-0.026,10.058,4.445,10.092,9.998L317.114,198.983z" data-original="#CDCDCE" class=""/>
	<path style="fill:#CDCDCE;" d="M316.837,264.782c0.026,5.549-4.445,10.062-9.994,10.092l-13.392,0.067   c-5.545,0.026-10.065-4.449-10.095-9.994l-0.06-13.396c-0.026-5.545,4.449-10.065,9.994-10.095l13.388-0.06   c5.549-0.026,10.069,4.445,10.095,9.994L316.837,264.782z" data-original="#CDCDCE" class=""/>
</g><path style="fill:#6CC077;" d="M281.751,308.92l11.229-0.232l5.826,17.736l9.018-30.495l10.896-0.213L303.61,336.65l-9.568,0.198  L281.751,308.92z" data-original="#6CC077" class=""/><g>
	<path style="fill:#99999A;" d="M222.841,75.924c0,0,5.639-3.472,14.743-3.472c9.111,0,16.045,3.472,16.045,3.472   s-7.371-8.67-16.475-8.67C228.042,67.251,222.841,75.924,222.841,75.924z" data-original="#99999A" class=""/>
	<path style="fill:#99999A;" d="M151.829,106.513c-0.075,15.173,12.194,20.576,27.375,20.64l117.364,0.531   c15.169,0.067,27.498-5.231,27.562-20.4L151.829,106.513z" data-original="#99999A" class=""/>
</g><path style="fill:#AAAAAA" d="M296.755,84.459l-37.874-0.168c0.004-0.049,0.011-0.094,0.011-0.15  c0.056-11.734-9.418-21.287-21.152-21.336c-11.742-0.056-21.287,9.422-21.343,21.152c0,0.049,0.004,0.097,0.004,0.146l-37.01-0.172  c-15.173-0.064-27.487,5.235-27.558,20.408c-0.06,15.169,12.123,17.107,27.289,17.182l117.383,0.524  c15.158,0.075,27.573-1.766,27.637-16.935C324.209,89.933,311.932,84.53,296.755,84.459z M222.04,83.98  c0.03-8.621,7.057-15.581,15.674-15.543c8.617,0.041,15.577,7.061,15.54,15.685c0,0.049-0.011,0.094-0.019,0.15  c-0.109,8.55-7.087,15.427-15.663,15.386c-8.565-0.034-15.491-6.978-15.528-15.536C222.04,84.077,222.032,84.032,222.04,83.98z" data-original="#AAAAAA" class=""/></g> </svg>
