<?xml version="1.0" standalone="no"?>
<!DOCTYPE svg PUBLIC "-//W3C//DTD SVG 20010904//EN"
 "http://www.w3.org/TR/2001/REC-SVG-20010904/DTD/svg10.dtd">
<svg version="1.0" xmlns="http://www.w3.org/2000/svg"
 width="256.000000pt" height="256.000000pt" viewBox="0 0 256.000000 256.000000"
 preserveAspectRatio="xMidYMid meet">

<g transform="translate(0.000000,256.000000) scale(0.100000,-0.100000)"
fill="#023d67" stroke="none">
<path d="M1480 2395 c-250 -41 -465 -77 -477 -82 -14 -5 -182 -245 -474 -677
-248 -369 -453 -675 -455 -681 -3 -6 1 -18 8 -27 23 -28 1192 -812 1213 -812
15 -1 52 47 148 189 71 105 132 196 137 204 7 12 17 10 66 -11 109 -48 254
-60 338 -29 23 9 30 2 140 -158 147 -212 151 -216 226 -216 51 0 63 4 89 29
37 35 55 85 46 126 -4 16 -60 107 -126 202 -65 95 -119 176 -119 180 0 4 14
29 30 55 46 72 70 161 70 257 0 141 -42 248 -136 344 -30 31 -54 59 -54 62 0
4 19 33 41 65 l42 57 -113 492 c-61 270 -114 494 -117 499 -8 13 -62 6 -523
-68z m470 -11 c0 -3 46 -204 101 -446 99 -432 101 -442 85 -472 -9 -17 -25
-42 -35 -55 l-18 -24 -64 22 c-328 114 -659 -119 -659 -464 0 -133 42 -241
134 -342 l35 -39 -55 -82 c-30 -45 -56 -82 -58 -82 -16 0 -1111 751 -1110 762
1 7 164 254 363 549 l362 536 237 38 c130 21 325 53 432 70 199 33 250 39 250
29z m44 -1045 c212 -79 323 -305 257 -520 -94 -302 -483 -393 -700 -164 -160
169 -159 422 1 585 52 53 147 105 218 120 61 12 160 3 224 -21z m-1192 -615
c299 -201 549 -372 557 -379 11 -11 6 -23 -29 -76 -24 -35 -44 -65 -45 -67 -1
-1 -249 165 -551 369 -302 204 -555 374 -562 378 -10 6 -2 24 33 74 26 37 48
67 51 67 2 0 248 -165 546 -366z m1497 -313 c121 -175 133 -206 86 -237 -47
-31 -66 -15 -184 154 -60 87 -111 163 -113 169 -3 10 77 72 94 73 4 0 56 -72
117 -159z"/>
<path d="M1718 2252 c-30 -18 -58 -67 -58 -102 0 -107 141 -160 213 -80 21 24
27 40 27 78 0 27 -7 57 -16 70 -35 50 -115 67 -166 34z m96 -68 c31 -30 9 -84
-34 -84 -11 0 -27 11 -36 25 -15 23 -15 27 0 50 19 29 47 32 70 9z"/>
</g>
</svg>
