<?xml version="1.0" standalone="no"?>
<!DOCTYPE svg PUBLIC "-//W3C//DTD SVG 20010904//EN"
 "http://www.w3.org/TR/2001/REC-SVG-20010904/DTD/svg10.dtd">
<svg version="1.0" xmlns="http://www.w3.org/2000/svg"
 width="84.000000pt" height="84.000000pt" viewBox="0 0 84.000000 84.000000"
 preserveAspectRatio="xMidYMid meet">

	<g transform="translate(0.000000,84.000000) scale(0.100000,-0.100000)"
	fill="#000000" stroke="none">
		<path fill="#F00" d="M70 420 l0 -420 293 0 c183 0 307 4 332 11 81 23 145 115 145 209 0
		40 -29 108 -53 129 -15 12 -17 42 -17 252 l0 239 -350 0 -350 0 0 -420z m650
		175 l0 -195 -26 10 c-63 24 -153 4 -208 -48 -80 -75 -87 -212 -14 -289 l21
		-23 -186 0 -187 0 0 370 0 370 300 0 300 0 0 -195z m-23 -241 c66 -32 103
		-105 89 -179 -9 -48 -73 -112 -120 -121 -59 -10 -103 3 -146 46 -126 126 16
		330 177 254z"/>
		<path fill="#F00" d="M210 640 l0 -30 210 0 210 0 0 30 0 30 -210 0 -210 0 0 -30z"/>
		<path fill="#F00" d="M210 465 l0 -25 125 0 125 0 0 25 0 25 -125 0 -125 0 0 -25z"/>
		<path fill="#F00" d="M210 290 l0 -31 88 3 c85 3 87 3 87 28 0 25 -2 25 -87 28 l-88 3 0
		-31z"/>
		<path fill="#F00" d="M662 227 l-62 -61 -38 37 c-37 36 -39 37 -55 19 -16 -17 -14 -21 38
		-72 l55 -55 81 81 c76 77 79 81 62 97 -18 15 -22 13 -81 -46z"/>
	</g>
</svg>
