<svg xmlns="http://www.w3.org/2000/svg" version="1.0" width="342.000000" height="342.000000" preserveAspectRatio="xMidYMid meet"><rect id="backgroundrect" width="100%" height="100%" x="0" y="0" fill="none" stroke="none"/>
<metadata>
Created by potrace 1.16, written by Peter Selinger 2001-2019
</metadata>

<g class="currentLayer" style=""><title>Layer 1</title><g transform="translate(0,342) scale(0.10000000149011612,-0.10000000149011612) " fill="#f90971" stroke="#b80404" id="svg_1" class="selected" stroke-opacity="1" fill-opacity="1">
<path d="M0,1692.7586193084717 l0,-1710 l1535,0 l1535,0 l0,1001 c0,912 -1,1001 -16,995 c-9,-3 -94,-75 -190,-159 l-174,-152 l0,-657 l0,-658 l-1160,0 l-1160,0 l0,1340 l0,1340 l773,1 c424,0 791,4 813,7 c36,6 63,26 183,137 c78,71 157,138 176,147 c18,10 43,31 55,48 l21,30 l-1195,0 l-1196,0 l0,-1710 z" id="svg_2" stroke="#b80404" stroke-opacity="1" fill="#f90971" fill-opacity="1"/>
<path d="M2797,3358.7586193084717 c-42,-16 -59,-29 -159,-125 c-38,-36 -68,-72 -68,-81 c0,-8 131,-146 291,-305 l290,-290 l90,95 c49,52 98,113 109,136 c29,59 28,178 -2,241 c-29,61 -246,282 -308,313 c-57,29 -185,38 -243,16 z" id="svg_3" stroke="#b80404" stroke-opacity="1" fill="#f90971" fill-opacity="1"/>
<path d="M1948,2543.7586193084717 c-257,-258 -474,-484 -483,-501 c-9,-18 -23,-82 -30,-144 c-7,-61 -25,-202 -40,-314 c-16,-111 -25,-205 -21,-209 c3,-4 46,-1 94,6 c48,6 189,25 314,41 c125,17 238,34 251,39 c12,5 241,225 507,490 l485,481 l-295,289 c-162,160 -299,290 -305,291 c-5,0 -220,-211 -477,-469 z" id="svg_4" stroke="#b80404" stroke-opacity="1" fill="#f90971" fill-opacity="1"/>
</g></g></svg>