<svg xmlns="http://www.w3.org/2000/svg" version="1.0" width="342.000000" height="342.000000" preserveAspectRatio="xMidYMid meet"><rect id="backgroundrect" width="100%" height="100%" x="0" y="0" fill="none" stroke="none"/>
<metadata>
Created by potrace 1.16, written by Peter Selinger 2001-2019
</metadata>

<g class="currentLayer" style=""><title>Layer 1</title><g transform="translate(0,342) scale(0.10000000149011612,-0.10000000149011612) " fill="#023d67" stroke="none" id="svg_1" class="selected" fill-opacity="1">
<path d="M0 1710 l0 -1710 1535 0 1535 0 0 1001 c0 912 -1 1001 -16 995 -9 -3 -94 -75 -190 -159 l-174 -152 0 -657 0 -658 -1160 0 -1160 0 0 1340 0 1340 773 1 c424 0 791 4 813 7 36 6 63 26 183 137 78 71 157 138 176 147 18 10 43 31 55 48 l21 30 -1195 0 -1196 0 0 -1710z" id="svg_2" fill="#023d67" fill-opacity="1"/>
<path d="M2797 3376 c-42 -16 -59 -29 -159 -125 -38 -36 -68 -72 -68 -81 0 -8 131 -146 291 -305 l290 -290 90 95 c49 52 98 113 109 136 29 59 28 178 -2 241 -29 61 -246 282 -308 313 -57 29 -185 38 -243 16z" id="svg_3" fill="#023d67" fill-opacity="1"/>
<path d="M1948 2561 c-257 -258 -474 -484 -483 -501 -9 -18 -23 -82 -30 -144 -7 -61 -25 -202 -40 -314 -16 -111 -25 -205 -21 -209 3 -4 46 -1 94 6 48 6 189 25 314 41 125 17 238 34 251 39 12 5 241 225 507 490 l485 481 -295 289 c-162 160 -299 290 -305 291 -5 0 -220 -211 -477 -469z" id="svg_4" fill="#023d67" fill-opacity="1"/>
</g></g></svg>