<svg xmlns="http://www.w3.org/2000/svg" xmlns:xlink="http://www.w3.org/1999/xlink" viewBox="0 0 50 50" version="1.1"><g id="surface1"><path style="fill:#FFFFFF; " d="M 26 2 C 13.300781 2 8.398438 10.199219 8 18 L 8 24.6875 C 7.300781 25.488281 7 26.511719 7 27.8125 C 7 30.113281 8.488281 32 10.6875 32.5 C 13.289063 39.300781 17.601563 48 25 48 C 28.683594 48 31.59375 45.789063 33.90625 42.78125 C 34.296875 42.34375 34.785156 41.660156 35.25 40.90625 C 39.082031 40.308594 42 37.003906 42 33 L 42 32 C 43.652344 32 45 30.652344 45 29 L 45 25 C 45 23.347656 43.652344 22 42 22 L 40 22 C 39.445313 22 39 22.449219 39 23 L 39 31 C 39 31.554688 39.445313 32 40 32 L 40 33 C 40 35.390625 38.660156 37.40625 36.6875 38.375 C 37.195313 37.4375 37.636719 36.601563 37.78125 36.3125 C 37.789063 36.304688 37.804688 36.320313 37.8125 36.3125 C 38.207031 35.457031 38.539063 34.605469 38.875 33.78125 C 38.167969 33.496094 37.601563 32.941406 37.28125 32.25 C 36.636719 33.851563 35.988281 35.3125 35.34375 36.625 C 35.257813 36.757813 35.179688 36.890625 35.09375 37.0625 C 34.765625 37.722656 34.386719 38.382813 34 39 L 29.8125 39 C 29.394531 37.84375 28.300781 37 27 37 L 25 37 C 23.347656 37 22 38.347656 22 40 C 22 41.652344 23.347656 43 25 43 L 27 43 C 28.300781 43 29.394531 42.15625 29.8125 41 L 32.625 41 C 32.308594 41.425781 31.90625 42 31.90625 42 C 29.707031 44.699219 27.40625 46 24.90625 46 C 20.105469 46 15.988281 41.1875 12.1875 31.1875 L 12 30.59375 L 11.40625 30.5 C 10.105469 30.5 9 29.3125 9 27.8125 C 9 27.144531 9.121094 26.5625 9.34375 26.15625 L 11.6875 26.9375 C 11.992188 27.039063 12.332031 27 12.59375 26.8125 C 12.855469 26.625 13 26.320313 13 26 L 13 19.9375 C 15.882813 19.691406 24.464844 18.625 28.875 14.5625 C 31.351563 17.664063 35.34375 19.214844 37 19.75 L 37 23 C 37 21.699219 37.839844 20.601563 39 20.1875 C 39.152344 20.132813 39.308594 20.089844 39.46875 20.0625 C 39.640625 20.027344 39.820313 20 40 20 L 42 20 L 42 18 C 41.601563 9.199219 36.707031 4.199219 28.40625 4 L 26.40625 2 Z "></path></g></svg>