<svg height="512pt" viewBox="0 0 512 512" width="512pt" xmlns="http://www.w3.org/2000/svg"><path d="m184 8h320v376h-320zm0 0" fill="#78909c"/><path d="m136 56h320v376h-320zm0 0" fill="#90a4ae"/><path d="m88 104h320v376h-320zm0 0" fill="#2ac3f2"/><path d="m56 504v-352h304v312c0 22.089844-17.910156 40-40 40zm0 0" fill="#a6e7ff"/><path d="m320 504c-22.089844 0-40-17.910156-40-40v-56h-272v56c0 22.089844 17.910156 40 40 40zm0 0" fill="#ffe082"/><g fill="#fff"><path d="m290.550781 282.542969-38.375-16.925781 6.457031-14.640626 23.734376 10.480469 10.464843-23.738281 14.648438 6.449219zm0 0"/><path d="m123.167969 338.28125-14.648438-6.449219 16.929688-38.375 38.375 16.925781-6.457031 14.640626-23.734376-10.480469zm0 0"/><path d="m278.542969 273.601562c-6.84375-33.519531-36.332031-57.59375-70.542969-57.59375s-63.699219 24.074219-70.542969 57.59375l-15.6875-3.203124c8.34375-40.992188 44.394531-70.449219 86.230469-70.449219s77.886719 29.457031 86.230469 70.449219zm0 0"/><path d="m208 376c-41.789062-.089844-77.785156-29.476562-86.230469-70.398438l15.6875-3.203124c6.84375 33.519531 36.332031 57.59375 70.542969 57.59375s63.699219-24.074219 70.542969-57.59375l15.6875 3.203124c-8.445313 40.921876-44.441407 70.308594-86.230469 70.398438zm0 0"/><path d="m96 224h-16v-48h48v16h-32zm0 0"/><path d="m32 432h48v16h-48zm0 0"/></g><path d="m176 0v48h-48v48h-48v48h-32v256h-48v64c.0273438 26.5 21.5 47.972656 48 48h272c26.5-.027344 47.972656-21.5 48-48v-320h-272v-32h304v288h16v-304h-272v-32h304v288h16v-304h-272v-32h304v288h16v-304zm-128 496c-17.671875 0-32-14.328125-32-32v-48h256v48c-.007812 11.8125 4.355469 23.210938 12.246094 32zm304-336v304c0 17.671875-14.328125 32-32 32s-32-14.328125-32-32v-64h-224v-240zm0 0"/><path d="m496 336h16v48h-16zm0 0"/><path d="m448 384h16v48h-16zm0 0"/><path d="m400 432h16v48h-16zm0 0"/></svg>