<?xml version="1.0" encoding="UTF-8"?>
<svg width="48px" height="48px" viewBox="0 0 48 48" version="1.1" xmlns="http://www.w3.org/2000/svg" xmlns:xlink="http://www.w3.org/1999/xlink">
    
    <!-- Generator: Sketch 50.2 (55047) - http://www.bohemiancoding.com/sketch -->
    <title>call / mute-off_48px</title>
    <desc>Created with Sketch.</desc>
    <defs></defs>
    <g id="call-/-mute-off_48px" stroke="none" stroke-width="1" fill="none" fill-rule="evenodd">
        <path d="M24,0.625 C5.14517797,0.625 0.625,5.14517797 0.625,24 C0.625,42.854822 5.14517797,47.375 24,47.375 C42.854822,47.375 47.375,42.854822 47.375,24 C47.375,5.14517797 42.854822,0.625 24,0.625 Z" id="mask-squircle" stroke="#FFFFFF" stroke-width="1.25" opacity="0.871316964"></path>
        <g id="Group" stroke="#FFFFFF" stroke-linecap="round" stroke-linejoin="round">
            <path
       d="m 23,27.147813 c 1.50625,0 2.727272,-1.678908 2.727272,-3.75 v -6.25 c 0,-2.071096 -1.221022,-3.75 -2.727272,-3.75 -1.50625,0 -2.727272,1.678904 -2.727272,3.75 v 6.25 c 0,2.071092 1.221022,3.75 2.727272,3.75 z m 4.545454,-6.25 H 27.09091 c -0.251138,0 -0.454547,0.279687 -0.454547,0.625 v 1.875 c 0,2.921875 -1.832102,5.266404 -3.999714,4.975783 -1.889205,-0.253516 -3.273013,-2.588675 -3.273013,-5.198441 v -1.652342 c 0,-0.345313 -0.203409,-0.625 -0.454545,-0.625 H 18.454545 C 18.203409,20.897813 18,21.1775 18,21.522813 v 1.56875 c 0,3.501563 1.81733,6.623046 4.318181,7.097267 v 1.333983 h -1.590909 c -0.251135,0 -0.454544,0.279688 -0.454544,0.625 v 0.625 c 0,0.345312 0.203409,0.625 0.454544,0.625 h 4.545455 c 0.251136,0 0.454545,-0.279688 0.454545,-0.625 v -0.625 c 0,-0.345312 -0.203409,-0.625 -0.454545,-0.625 H 23.681819 V 30.203671 C 26.116761,29.744296 28,26.870467 28,23.397813 v -1.875 c 0,-0.345313 -0.203409,-0.625 -0.454546,-0.625 z"
     id="path3914" stroke-width="0.25" fill="#FFFFFF" />
        </g>
    </g>
</svg>