<?xml version="1.0" encoding="utf-8"?>
<!-- Generator: Adobe Illustrator 19.0.0, SVG Export Plug-In . SVG Version: 6.00 Build 0)  -->
<svg version="1.1" id="Layer_1" xmlns="http://www.w3.org/2000/svg" xmlns:xlink="http://www.w3.org/1999/xlink" x="0px" y="0px"
	 viewBox="-281 373 48 48" style="enable-background:new -281 373 48 48;" xml:space="preserve">
<style type="text/css">
	.st0{opacity:0.8713;fill:none;stroke:#FFFFFF;stroke-width:1.25;enable-background:new    ;}
	.st1{fill:none;stroke:#FFFFFF;stroke-width:1.25;stroke-linecap:round;stroke-linejoin:round;}
	.st2{fill:#FFFFFF;stroke:#FFFFFF;stroke-width:0.25;stroke-linecap:round;stroke-linejoin:round;}
</style>
<title>call / mute-off_48px</title>
<desc>Created with Sketch.</desc>
<path id="mask-squircle" class="st0" d="M-257,373.6c-18.9,0-23.4,4.5-23.4,23.4s4.5,23.4,23.4,23.4s23.4-4.5,23.4-23.4
	S-238.1,373.6-257,373.6z"/>
<path class="st1" d="M-262.7,395.6v0.9c0,3,2.5,5.5,5.5,5.5c1.3,0,2.5-0.5,3.5-1.3"/>
<path class="st1" d="M-260.7,400.7c1,0.8,2.2,1.3,3.5,1.3c3,0,5.5-2.5,5.5-5.5v-0.9"/>
<line class="st1" x1="-257.2" y1="402" x2="-257.2" y2="405.7"/>
<path class="st2" d="M-260.9,396.5v-2.9l5.8,5.8c-0.6,0.5-1.4,0.7-2.2,0.7C-259.2,400.2-260.9,398.6-260.9,396.5z"/>
<path class="st2" d="M-253.5,391v5.7l-7.1-7.1c0.6-1.3,1.9-2.3,3.4-2.3C-255.2,387.4-253.5,389-253.5,391z"/>
<path class="st2" d="M-257.2,400.2c-1.5,0-2.8-0.9-3.4-2.3l7.1-7.1v5.7C-253.5,398.6-255.2,400.2-257.2,400.2z"/>
<path class="st2" d="M-257.2,387.3c1.5,0,2.8,0.9,3.4,2.3l-7.1,7.1v-5.8C-260.9,388.9-259.2,387.3-257.2,387.3z"/>
<path class="st2" d="M-253.5,407.5h-7.3c0-1,0.8-1.8,1.8-1.8h3.7C-254.4,405.7-253.5,406.5-253.5,407.5z"/>
<rect x="-259.8" y="392.5" class="st2" width="4.1" height="4.1"/>
</svg>
