<?xml version="1.0"?>
<svg xmlns="http://www.w3.org/2000/svg" height="48" viewBox="0 0 48 48" width="48"><path stroke="#FF0000" stroke-width="1.25" fill="#FFFFFF" d="M0 0h48v48H0zm0 0h48v48H0z" /><path d="M42 13l-8 8v-7c0-1.1-.9-2-2-2H19.64L42 34.36V13zM6.55 4L4 6.55 9.45 12H8c-1.1 0-2 .9-2 2v20c0 1.1.9 2 2 2h24c.41 0 .77-.15 1.09-.37L39.46 42 42 39.45 6.55 4z" stroke="#FFFFFF" stroke-width="1.25" fill="#FFFFFF"/>
	
	
	<metadata>
		<rdf:RDF xmlns:rdf="http://www.w3.org/1999/02/22-rdf-syntax-ns#" xmlns:rdfs="http://www.w3.org/2000/01/rdf-schema#" xmlns:dc="http://purl.org/dc/elements/1.1/">
			<rdf:Description about="https://iconscout.com/legal#licenses" dc:title="Video, Videocam, Off, Close, No, Recording" dc:description="Video, Videocam, Off, Close, No, Recording" dc:publisher="Iconscout" dc:date="2016-12-14" dc:format="image/svg+xml" dc:language="en">
				<dc:creator>
					<rdf:Bag>
						<rdf:li>Google Inc.</rdf:li>
					</rdf:Bag>
				</dc:creator>
			</rdf:Description>
		</rdf:RDF>
    </metadata></svg>
