<?xml version="1.0" encoding="utf-8"?>
<!-- Svg Vector Icons : http://www.onlinewebfonts.com/icon -->
<!DOCTYPE svg PUBLIC "-//W3C//DTD SVG 1.1//EN" "http://www.w3.org/Graphics/SVG/1.1/DTD/svg11.dtd">
<svg version="1.1" xmlns="http://www.w3.org/2000/svg" xmlns:xlink="http://www.w3.org/1999/xlink" x="0px" y="0px" viewBox="0 0 1000 1000" enable-background="new 0 0 1000 1000" xml:space="preserve">
<metadata> Svg Vector Icons : http://www.onlinewebfonts.com/icon </metadata>
<g><g transform="translate(0.000000,511.000000) scale(0.100000,-0.100000)"><path stroke="#FFFFFF" stroke-width="1.25" fill="#FFFFFF"  d="M8051,4165.3c-30.6-13.4-424.9-396.2-876.7-847.9c-453.6-453.6-828.8-821.1-838.3-815.4c-7.6,5.7-15.3,30.6-15.3,53.6c0,24.9-30.6,105.3-67,178c-112.9,225.9-325.4,394.3-560.8,444.1c-141.6,30.6-4802.4,30.6-4945.9,0c-239.3-49.8-463.2-233.5-576.1-470.9l-61.3-130.2l-5.7-1870L100-1161.5l44-53.6c57.4-67,149.3-70.8,210.5-9.6l42.1,42.1l9.6,1870c9.6,1778.2,11.5,1873.9,45.9,1937c49.8,93.8,122.5,168.4,212.5,216.3l76.6,42.1l2428.9,5.7c2683.5,5.7,2559.1,9.6,2702.6-114.8c112.9-99.5,147.4-189.5,155-407.7l9.6-191.4L3397.9-462.9C850.3-3008.6,756.5-3100.4,702.9-3087.1c-32.5,7.7-101.4,57.4-155,111c-99.5,99.5-141.6,201-141.6,336.9c0,36.4-17.2,76.6-47.9,105.3C257-2430.5,100-2505.2,100-2656.4c0-91.9,55.5-275.6,111-365.6c40.2-65.1,229.7-268,250.7-268c5.7,0,24.9-9.6,40.2-19.1c23-13.4-13.4-59.3-178-225.8c-185.7-187.6-204.8-216.3-204.8-279.5c0-91.9,53.6-145.5,147.4-145.5c65.1,0,91.9,21.1,338.8,268l269.9,268l2421.3,3.9l2421.3,5.7l130.2,61.3c178,84.2,323.5,227.7,411.5,405.8l70.8,143.6l9.6,844.1l9.6,846L7526.6-2040c647-511.1,1226.9-964.7,1288.2-1010.6c155-118.7,269.9-153.1,491.9-151.2c216.3,1.9,348.4,44,497.7,162.7l95.7,74.6V201.3v3165.9l-78.5,70.8c-134,120.6-266.1,170.3-480.4,178c-216.3,9.6-371.3-32.5-513-137.8c-47.9-36.4-624-495.7-1282.4-1020.2l-1196.3-955.1l-5.7,268l-5.7,268l958.9,958.9c874.7,876.6,957,962.8,957,1020.2c0,86.1-26.8,130.2-91.9,153.1C8123.7,4184.5,8091.2,4182.6,8051,4165.3z M9507.6,3286.8l76.6-40.2l5.7-3039.5l3.8-3039.5l-99.5-45.9c-120.6-57.4-260.3-61.2-363.7-13.4c-40.2,17.2-241.2,168.4-449.8,333.1c-208.6,166.5-886.2,700.5-1508.3,1188.6L6043.2-482l-9.6-1150.4c-9.6-1133.1-9.6-1152.3-51.7-1226.9c-47.9-89.9-122.5-162.7-216.3-212.5c-63.2-34.5-164.6-36.4-2325.6-42.1l-2258.6-3.9L3602.7-696.4L6024,1724.9l9.6-428.8l9.6-428.7l1521.7,1213.5c1137,907.3,1542.7,1221.2,1607.8,1242.2C9279.8,3357.6,9404.2,3344.2,9507.6,3286.8z"/></g></g>
</svg>
