<svg width="100%" height="100%" viewBox="0 0 24 24" version="1.1" xmlns="http://www.w3.org/2000/svg" xmlns:xlink="http://www.w3.org/1999/xlink">
    <defs>
        <style>
            :root {
                --background-color: #FF0000;
                --color: #FFFFFF;
            }

            .background {
                fill: var(--background-color);
            }

            .color-stroke {
                stroke: var(--color);
            }
            .color-fill {
                fill: var(--color);
            }

            @media (min-width: 24px) {
                .small {
                    display: none;
                }
            }

            @media (max-width: 23px) {
                .large {
                    display: none;
                }
            }
        </style>
    </defs>

    <g class="large" stroke="none" stroke-width="1" fill="none" fill-rule="evenodd">
        <rect class="background" x="0" y="0" width="24" height="24"></rect>

        <path class="color-fill" d="M17.7052547,15.0568242 L16.2982168,13.5559838 C16.7439484,12.8080409 17,11.9339225 17,11 L19,11 C19,12.5121842 18.5205016,13.9123756 17.7052547,15.0568242 L17.7052547,15.0568242 Z M14.8320745,11.9920987 L9,5.77121919 L9,5 C9,3.34314575 10.3431458,2 12,2 C13.6568542,2 15,3.34314575 15,5 L15,11 C15,11.3476848 14.9408539,11.6815552 14.8320745,11.9920987 L14.8320745,11.9920987 Z M15.1058273,17.2749966 C14.4548152,17.5978356 13.7463995,17.8223471 13,17.9291111 L13,20 L16,20 L16,22 L8,22 L8,20 L11,20 L11,17.9291111 C7.60770586,17.4438815 5,14.5264719 5,11 L7,11 C7,13.7614237 9.23857625,16 12,16 C12.5779676,16 13.1330309,15.9019353 13.6494589,15.721537 L12.0353275,13.9997968 C12.0235675,13.999932 12.0117917,14 12,14 C10.3431458,14 9,12.6568542 9,11 L9,10.7621141 L3.08652167,4.45440392 L4.54559608,3.08652167 L20.9134783,20.5455961 L19.4544039,21.9134783 L15.1058273,17.2749966 L15.1058273,17.2749966 Z" stroke-width="2" stroke-linecap="square"></path>
    </g>

    <g class="small" stroke="none" stroke-width="1" fill="none" fill-rule="evenodd">
        <rect class="background" x="0" y="0" width="24" height="24"></rect>

        <g transform="translate(4.500000, 1.500000)">
            <path class="color-fill" d="M12.6402217,15.9615421 C11.6444316,16.8990996 10.3922373,17.5673636 9,17.8499728 L9,21 L6,21 L6,17.8499728 C2.57663952,17.1550673 0,14.1284369 0,10.5 L3,10.5 C3,12.4593282 4.25221144,14.1261868 6,14.7439414 L6,13.0986534 C5.10329796,12.5799393 4.5,11.6104235 4.5,10.5 L4.5,7.82132036 L9.45460494,12.7759253 C9.31381937,12.8969457 9.16167889,13.0051272 9,13.0986534 L9,14.7439414 C9.56638833,14.5437519 10.0807337,14.2333908 10.517287,13.8386073 L12.6402217,15.9615421 Z M14.3896742,13.4683538 L11.9672231,11.0459028 C11.9888628,10.8669595 12,10.6847804 12,10.5 L15,10.5 C15,11.554424 14.7824069,12.5580264 14.3896742,13.4683538 Z M10.5,9.57867967 L4.5,3.57867967 L4.5,3 L4.5,3 C4.5,1.34314575 5.84314575,6.92937247e-16 7.5,3.88578059e-16 C8.32842712,2.36398465e-16 9.07842712,0.335786438 9.62132034,0.878679656 C10.1642136,1.42157288 10.5,2.17157288 10.5,3 L10.5,9.57867967 Z" fill-rule="nonzero"></path>
            <path class="color-stroke" d="M15,19.5 L0,4.5" stroke-width="2"></path>
        </g>
    </g>
</svg>
