<?xml version="1.0" encoding="utf-8"?>
<!-- Svg Vector Icons : http://www.onlinewebfonts.com/icon -->
<!DOCTYPE svg PUBLIC "-//W3C//DTD SVG 1.1//EN" "http://www.w3.org/Graphics/SVG/1.1/DTD/svg11.dtd">
<svg version="1.1" xmlns="http://www.w3.org/2000/svg" xmlns:xlink="http://www.w3.org/1999/xlink" x="0px" y="0px" viewBox="0 0 1000 1000" enable-background="new 0 0 1000 1000" xml:space="preserve">
<metadata> Svg Vector Icons : http://www.onlinewebfonts.com/icon </metadata>
<g><g><g><g><polygon stroke="#FFFFFF" stroke-width="1.25" fill="#FFFFFF" points="305.1,824.5 220.8,908.8 642.3,908.8 558,824.5 "/></g><g><path stroke="#FFFFFF" stroke-width="1.25" fill="#FFFFFF"  d="M990,312.5c0-122-99.3-221.3-221.3-221.3c-92.2,0-171.2,56.7-204.4,137H10v548h843V516.9C933.3,483.7,990,404.7,990,312.5z M768.7,512.7c-110.4,0-200.2-89.8-200.2-200.2c0-110.4,89.8-200.2,200.2-200.2s200.2,89.8,200.2,200.2C968.9,422.9,879.1,512.7,768.7,512.7z"/></g><g><polygon stroke="#FFFFFF" stroke-width="1.25" fill="#FFFFFF" points="914.5,218.9 862.2,166.7 768.7,260.2 675.3,166.7 622.9,218.9 716.5,312.4 622.9,405.9 675.3,458.4 768.7,364.8 862.2,458.4 914.5,405.9 821.1,312.4 "/></g></g></g><g></g><g></g><g></g><g></g><g></g><g></g><g></g><g></g><g></g><g></g><g></g><g></g><g></g><g></g><g></g></g>
</svg>
