<?xml version="1.0" encoding="iso-8859-1"?>
<!-- Generator: Adobe Illustrator 19.0.0, SVG Export Plug-In . SVG Version: 6.00 Build 0)  -->
<svg version="1.1" id="Capa_1" xmlns="http://www.w3.org/2000/svg" xmlns:xlink="http://www.w3.org/1999/xlink" x="0px" y="0px"
	 viewBox="0 0 438.146 438.146" style="enable-background:new 0 0 438.146 438.146;" xml:space="preserve">
<g>
	<g>
		<g>
			<path style="fill: white" d="M184,165.073l-17.2-38c-16.4-36.8-60.8,21.6-56.8,49.2c9.2,67.2,127.6,176,193.2,140c14.8-8,34.4-36.8,19.6-45.6
				l-38-20.4c-12.8-6.8-13.2-2.4-26.4,12c-3.2,3.6-9.2,12.4-16.4,10.8c-14.8-3.6-42.8-25.6-51.6-35.2c-4.4-4.8-22.8-27.2-22.8-34.4
				C167.2,191.473,191.6,186.273,184,165.073z"/>
			<path style="fill: white" d="M14.8,233.873c8,0,14.8-6.4,14.8-14.8c0-51.6,20.8-98,54.8-132c33.6-33.6,80.4-54.8,132-54.8c38,0,74,11.6,104,31.6
				c20,13.6,37.2,30.8,50.8,51.2l-16.8-6.4c-7.6-2.8-16,0.8-18.8,8.4c-2.8,7.6,0.8,16,8.4,18.8l52.8,20.8c3.6,1.6,7.6,1.6,11.2,0
				c4-1.6,6.8-4.8,8.4-8.8l20.8-52.8c2.8-7.6-0.8-16-8.4-18.8c-7.6-2.8-16,0.8-18.8,8.4l-8.8,22.8c-16.4-27.2-38.4-50-64.4-67.2
				c-34.8-23.6-76.4-36.8-120.4-36.8c-59.6,0-113.6,24-152.4,63.2c-39.6,38.8-64,92.8-64,152.4C0,227.073,6.8,233.873,14.8,233.873z
				"/>
			<path style="fill: white" d="M422.8,204.273c-8,0-14.8,6.4-14.8,14.8c0,51.6-20.8,98-54.8,132c-33.6,33.6-80.4,54.8-132,54.8c-38,0-74-11.6-104-31.6
				c-20-13.6-37.2-30.8-50.8-51.2l16.8,6.4c7.6,2.8,16-0.8,18.8-8.4c2.8-7.6-0.8-16-8.4-18.8l-52.8-20.8c-3.6-1.6-7.6-1.6-11.2,0
				c-4,1.6-6.8,4.8-8.4,8.8l-20,52.8c-2.8,7.6,0.8,16,8.4,18.8c7.6,2.8,16-0.8,18.8-8.4l8.8-22.8c16.4,27.2,38.4,50,64.4,67.2
				c34.8,23.6,76.4,36.8,120.4,36.8c59.6,0,113.6-24,152.4-63.2c39.2-39.2,63.2-92.8,63.2-152.4
				C437.6,211.073,430.8,204.273,422.8,204.273z"/>
		</g>
	</g>
</g>
<g>
</g>
<g>
</g>
<g>
</g>
<g>
</g>
<g>
</g>
<g>
</g>
<g>
</g>
<g>
</g>
<g>
</g>
<g>
</g>
<g>
</g>
<g>
</g>
<g>
</g>
<g>
</g>
<g>
</g>
</svg>
