<svg xmlns="http://www.w3.org/2000/svg" width="21" height="24" viewBox="0 0 21 24">
  <path fill="#00D068" d="M20.214,1.591 C16.139,4.436 12.79,3.518 10.9,1.166 C10.711,0.931 10.293,0.93 10.103,1.166 C8.231,3.492 4.909,4.47 0.786,1.591 C0.461,1.359 0,1.592 0,2 L0,16.811 C0,17.811 2.505,22.756 10.365,24.96 C10.449,24.984 10.548,24.985 10.635,24.96 C18.497,22.757 21,17.812 21,16.811 L21,2 C21,1.592 20.539,1.359 20.214,1.591 Z M17.357,10.037 L11.322,18.769 C10.968,19.283 10.234,19.348 9.793,18.908 L5.215,14.329 C4.824,13.938 4.824,13.306 5.215,12.915 C5.606,12.524 6.238,12.524 6.629,12.915 L10.359,16.645 L15.713,8.9 C16.025,8.445 16.651,8.333 17.104,8.645 C17.558,8.96 17.672,9.583 17.357,10.037 Z" transform="translate(0 -1)"/>
</svg>