<svg aria-hidden="true" focusable="false" data-prefix="fad" data-icon="info" role="img" xmlns="http://www.w3.org/2000/svg" viewBox="0 0 192 512" class="svg-inline--fa fa-info fa-w-6 fa-5x"><g class="fa-group"><path fill="#FFF" d="M20 448h152a20 20 0 0 1 20 20v24a20 20 0 0 1-20 20H20a20 20 0 0 1-20-20v-24a20 20 0 0 1 20-20z" class="fa-secondary"></path><path fill="#FFF" d="M96 128a64 64 0 1 0-64-64 64 64 0 0 0 64 64zm28 64H20a20 20 0 0 0-20 20v24a20 20 0 0 0 20 20h28v192h96V212a20 20 0 0 0-20-20z" class="fa-primary"></path></g></svg>