<svg version="1.1" xmlns="http://www.w3.org/2000/svg" xmlns:xlink="http://www.w3.org/1999/xlink" viewBox="0 0 172 172"><g transform="translate(4.988,4.988) scale(0.942,0.942)"><g fill="none" fill-rule="nonzero" stroke="none" stroke-width="none" stroke-linecap="butt" stroke-linejoin="none" stroke-miterlimit="10" stroke-dasharray="" stroke-dashoffset="0" font-family="none" font-weight="none" font-size="none" text-anchor="none" style="mix-blend-mode: normal"><g fill="#ffffff" stroke="#023d67" stroke-width="16" stroke-linejoin="round"><path d="M151.14787,119.80947c2.838,1.66267 4.214,4.9536 3.44,8.1528c-0.76253,3.11893 -2.60293,7.16667 -6.85133,11.41507c-13.27267,13.27267 -35.64413,20.3132 -85.5356,-29.57827c-49.89147,-49.89147 -42.8452,-72.26867 -29.57827,-85.5356c4.23693,-4.24267 8.27893,-6.0888 11.39213,-6.8456c3.20493,-0.78547 6.5188,0.61347 8.1872,3.4572l17.21147,29.40053c1.36453,2.32773 1.35307,5.2116 -0.02867,7.52787l-6.98893,11.7304c-1.5652,2.62587 -1.38173,5.90533 0.4988,8.31333c3.2508,4.1624 8.7204,10.86467 14.5512,16.69547c5.8308,5.8308 12.53307,11.3004 16.69547,14.5512c2.408,1.88053 5.68747,2.064 8.31333,0.4988l11.7304,-6.98893c2.31627,-1.376 5.1772,-1.40467 7.50493,-0.04013c7.0864,4.15093 22.37147,13.10067 29.45787,17.24587z"/></g><path d="M0,172v-172h172v172z" fill="none" stroke="none" stroke-width="3" stroke-linejoin="miter"/><g fill="#ffffff" stroke="none" stroke-width="3" stroke-linejoin="miter"><path d="M121.69,102.5636c-2.32773,-1.36453 -5.18867,-1.33587 -7.50493,0.04013l-11.7304,6.98893c-2.62587,1.5652 -5.90533,1.38173 -8.31333,-0.4988c-4.1624,-3.2508 -10.86467,-8.7204 -16.69547,-14.5512c-5.8308,-5.8308 -11.3004,-12.53307 -14.5512,-16.69547c-1.88053,-2.408 -2.064,-5.68747 -0.4988,-8.31333l6.98893,-11.7304c1.38173,-2.31627 1.3932,-5.20013 0.02867,-7.52787l-17.21147,-29.40053c-1.6684,-2.84373 -4.98227,-4.24267 -8.1872,-3.4572c-3.1132,0.7568 -7.1552,2.60293 -11.39213,6.8456c-13.26693,13.26693 -20.3132,35.64413 29.57827,85.5356c49.89147,49.89147 72.26293,42.85093 85.5356,29.57827c4.2484,-4.2484 6.0888,-8.29613 6.85133,-11.41507c0.774,-3.1992 -0.602,-6.49013 -3.44,-8.1528c-7.0864,-4.1452 -22.37147,-13.09493 -29.45787,-17.24587z"/></g><path d="" fill="none" stroke="none" stroke-width="3" stroke-linejoin="miter"/></g></g></svg>